<svg xmlns="http://www.w3.org/2000/svg" viewBox="0 0 163 200" width="163" height="200">
	<style>
		tspan { white-space:pre }
		.shp0 { fill: #ffffff } 
		.shp1 { fill: #0060a9 } 
		.shp2 { fill: #ffe003 } 
	</style>
	<g >
		<path class="shp0" d="M80.79 1.96C81.21 1.98 81.87 1.98 82.26 1.96C82.65 1.95 82.31 1.93 81.5 1.93C80.69 1.93 80.37 1.95 80.79 1.96Z" />
		<path class="shp1" d="M78.94 2.04C78.76 2.06 78.12 2.13 77.52 2.18C76.92 2.24 75.85 2.37 75.14 2.47C74.44 2.58 73.09 2.81 72.15 2.99C71.22 3.18 69.74 3.5 68.88 3.7C68.02 3.91 66.5 4.31 65.51 4.59C64.52 4.87 62.88 5.36 61.86 5.68C60.84 6 59.05 6.61 57.88 7.02C56.7 7.44 54.84 8.13 53.75 8.56C52.65 8.99 50.92 9.7 49.91 10.12C48.89 10.55 47.2 11.29 46.16 11.76C45.11 12.23 43.77 12.84 43.17 13.13C42.57 13.42 41.57 13.9 40.94 14.2C40.31 14.49 38.8 15.26 37.57 15.9C36.35 16.54 34.59 17.47 33.68 17.97C32.77 18.46 31.25 19.32 30.31 19.86C29.37 20.41 27.73 21.38 26.66 22.03C25.59 22.69 23.9 23.75 22.91 24.4C21.92 25.05 20.41 26.07 19.54 26.68C18.68 27.28 17.51 28.12 16.94 28.54C16.36 28.96 15.25 29.82 14.47 30.44C13.69 31.07 12.58 31.98 12 32.47C11.43 32.96 10.28 34.02 9.45 34.83C8.63 35.64 7.62 36.68 7.21 37.15C6.71 37.73 6.29 38.35 5.9 39.09C5.43 39.98 5.26 40.45 4.95 41.65C4.74 42.45 4.42 43.82 4.23 44.68C4.05 45.53 3.73 47.24 3.51 48.46C3.3 49.69 3.01 51.69 2.85 52.91C2.7 54.13 2.49 56.07 2.38 57.22C2.28 58.36 2.17 59.7 2.14 60.2C2.11 60.69 2.04 61.95 1.99 62.99C1.94 64.03 1.9 66.74 1.9 69C1.9 71.27 1.94 73.97 1.99 75.01C2.04 76.05 2.11 77.31 2.14 77.8C2.17 78.3 2.26 79.47 2.33 80.41C2.41 81.34 2.58 83.09 2.71 84.29C2.84 85.49 3.08 87.34 3.23 88.41C3.39 89.47 3.64 91.11 3.8 92.05C3.96 92.99 4.32 94.9 4.6 96.31C4.88 97.71 5.33 99.78 5.6 100.9C5.86 102.02 6.34 103.89 6.65 105.06C6.97 106.24 7.56 108.3 7.97 109.65C8.38 111.01 9.02 112.99 9.4 114.06C9.77 115.12 10.33 116.68 10.64 117.51C10.96 118.34 11.6 119.98 12.07 121.15C12.54 122.33 13.28 124.07 13.71 125.04C14.14 126 14.82 127.49 15.23 128.35C15.63 129.21 16.48 130.91 17.1 132.13C17.73 133.36 18.77 135.3 19.4 136.44C20.04 137.59 21.13 139.46 21.82 140.61C22.51 141.75 23.48 143.33 23.98 144.11C24.48 144.89 25.38 146.25 25.98 147.14C26.58 148.02 27.61 149.49 28.26 150.4C28.91 151.31 29.98 152.76 30.63 153.62C31.28 154.48 32.57 156.12 33.5 157.26C34.42 158.41 35.71 159.96 36.36 160.72C37.01 161.47 37.96 162.56 38.47 163.13C38.98 163.71 40.14 164.96 41.04 165.93C41.94 166.89 44.01 169 45.65 170.61C47.29 172.23 49.33 174.19 50.19 174.97C51.05 175.75 52.44 176.99 53.27 177.71C54.11 178.44 55.67 179.77 56.74 180.65C57.81 181.54 59.3 182.76 60.06 183.36C60.81 183.96 62.48 185.24 63.76 186.19C65.04 187.15 66.89 188.52 67.89 189.22C68.88 189.92 70.8 191.25 72.15 192.16C73.51 193.08 75.39 194.31 76.33 194.91C77.27 195.5 78.83 196.47 79.79 197.06C81.13 197.88 81.58 198.11 81.69 198.04C81.77 197.98 83.07 197.16 84.58 196.21C86.1 195.26 88.66 193.6 90.28 192.52C91.89 191.44 94.01 189.99 94.97 189.3C95.94 188.62 97.71 187.32 98.91 186.42C100.11 185.52 101.84 184.2 102.75 183.48C103.67 182.76 105.39 181.36 106.6 180.36C107.8 179.36 109.33 178.06 110.01 177.46C110.68 176.87 111.96 175.73 112.85 174.92C113.74 174.12 116.07 171.86 118.04 169.91C120 167.95 122.3 165.58 123.15 164.65C124 163.71 125.45 162.07 126.37 161C127.29 159.94 128.83 158.08 129.79 156.89C130.75 155.69 132.07 153.98 132.74 153.1C133.4 152.21 134.44 150.79 135.06 149.93C135.67 149.07 136.67 147.62 137.29 146.71C137.9 145.8 138.98 144.14 139.68 143.02C140.38 141.9 141.41 140.22 141.96 139.28C142.51 138.34 143.41 136.75 143.97 135.73C144.53 134.72 145.68 132.5 146.53 130.81C147.37 129.12 148.53 126.69 149.1 125.41C149.66 124.14 150.6 121.9 151.19 120.44C151.78 118.99 152.62 116.77 153.07 115.52C153.51 114.27 154.18 112.29 154.54 111.12C154.91 109.95 155.43 108.25 155.69 107.34C155.96 106.42 156.43 104.7 156.74 103.5C157.05 102.3 157.47 100.58 157.68 99.67C157.89 98.76 158.23 97.16 158.44 96.12C158.65 95.08 158.97 93.33 159.15 92.24C159.33 91.15 159.61 89.34 159.77 88.22C159.92 87.1 160.16 85.22 160.29 84.05C160.42 82.88 160.62 80.75 160.72 79.32C160.82 77.89 160.96 75.54 161.02 74.11C161.08 72.51 161.11 69.88 161.07 67.25C161.04 64.91 160.97 62.29 160.91 61.43C160.86 60.57 160.73 58.85 160.62 57.6C160.52 56.35 160.3 54.32 160.15 53.1C159.99 51.88 159.74 50.09 159.58 49.12C159.42 48.16 159.12 46.52 158.91 45.48C158.7 44.44 158.34 42.84 158.11 41.93C157.77 40.57 157.6 40.09 157.14 39.2C156.8 38.52 156.37 37.85 155.98 37.4C155.65 37 154.9 36.19 154.32 35.6C153.75 35.01 152.68 33.99 151.95 33.34C151.22 32.69 150.06 31.7 149.39 31.15C148.71 30.59 147.7 29.8 147.16 29.38C146.61 28.96 145.48 28.12 144.64 27.53C143.81 26.93 142.46 25.99 141.65 25.45C140.84 24.9 139.48 24 138.62 23.45C137.76 22.91 136.2 21.95 135.15 21.33C134.11 20.7 132.49 19.75 131.55 19.22C130.61 18.68 128.94 17.77 127.85 17.18C126.75 16.59 124.53 15.46 122.91 14.65C121.3 13.84 118.88 12.69 117.55 12.09C116.22 11.49 114.37 10.67 113.43 10.27C112.49 9.87 110.89 9.21 109.87 8.81C108.85 8.4 107.19 7.77 106.17 7.4C105.15 7.04 103.4 6.44 102.28 6.07C101.16 5.7 99.53 5.19 98.67 4.93C97.81 4.68 96.27 4.25 95.26 3.99C94.24 3.73 92.57 3.35 91.56 3.14C90.54 2.93 89.15 2.67 88.47 2.57C87.8 2.46 86.66 2.3 85.96 2.22C85.13 2.12 83.72 2.05 81.97 2.03C80.49 2.02 79.12 2.02 78.94 2.04Z" />
		<path class="shp2" d="M79.93 7.53C79.67 7.55 78.93 7.61 78.27 7.67C77.62 7.73 76.53 7.85 75.85 7.95C75.18 8.05 73.94 8.26 73.1 8.43C72.27 8.59 70.9 8.89 70.07 9.09C69.23 9.29 67.8 9.67 66.89 9.93C65.98 10.19 64.57 10.61 63.76 10.87C62.95 11.13 61.45 11.63 60.44 11.98C59.42 12.32 57.86 12.89 56.97 13.23C56.09 13.57 54.51 14.2 53.46 14.63C52.42 15.05 50.63 15.82 49.48 16.33C48.33 16.84 46.58 17.63 45.59 18.1C44.6 18.56 42.59 19.55 41.13 20.3C39.67 21.04 37.7 22.07 36.77 22.57C35.83 23.08 34.2 23.99 33.16 24.59C32.12 25.18 30.32 26.25 29.17 26.95C28.03 27.66 26.3 28.75 25.33 29.39C24.37 30.03 22.81 31.09 21.87 31.77C20.93 32.44 19.63 33.4 18.97 33.9C18.32 34.39 17.36 35.16 16.84 35.59C16.32 36.02 15.36 36.86 14.71 37.44C14.05 38.02 13.14 38.9 12.67 39.39C12.2 39.88 11.57 40.55 11.27 40.89L10.73 41.5C10.07 44.07 9.73 45.54 9.55 46.43C9.36 47.31 9.09 48.78 8.93 49.69C8.77 50.6 8.55 51.99 8.45 52.77C8.34 53.55 8.17 54.98 8.07 55.94C7.97 56.9 7.82 58.52 7.74 59.54C7.66 60.55 7.55 62.47 7.49 63.8C7.42 65.3 7.4 67.88 7.43 70.66C7.46 73.1 7.55 76.06 7.63 77.24C7.71 78.41 7.82 79.86 7.88 80.45C7.93 81.05 8.06 82.33 8.16 83.29C8.27 84.26 8.44 85.71 8.54 86.51C8.65 87.32 8.89 88.89 9.07 90.01C9.25 91.13 9.57 92.94 9.78 94.04C9.99 95.13 10.35 96.88 10.59 97.92C10.82 98.96 11.25 100.73 11.53 101.85C11.81 102.96 12.33 104.86 12.67 106.06C13.01 107.26 13.69 109.43 14.18 110.88C14.66 112.34 15.46 114.58 15.94 115.85C16.42 117.13 17.19 119.07 17.65 120.16C18.1 121.25 18.74 122.74 19.07 123.47C19.4 124.2 20.21 125.91 20.87 127.26C21.53 128.61 22.51 130.55 23.05 131.57C23.59 132.58 24.46 134.16 24.98 135.07C25.5 135.98 26.42 137.53 27.02 138.52C27.62 139.51 28.85 141.43 29.75 142.78C30.64 144.14 31.99 146.1 32.73 147.14C33.48 148.18 34.56 149.65 35.13 150.4C35.71 151.16 36.83 152.58 37.62 153.57C38.42 154.56 39.76 156.18 40.61 157.17C41.46 158.16 42.54 159.39 43.01 159.91C43.48 160.44 44.69 161.73 45.69 162.8C46.69 163.87 48.47 165.68 49.64 166.82C50.81 167.97 52.53 169.61 53.47 170.47C54.4 171.33 55.85 172.63 56.69 173.36C57.52 174.09 58.98 175.32 59.92 176.11C60.85 176.89 62.16 177.95 62.81 178.48C63.46 179 64.81 180.04 65.8 180.8C66.79 181.56 68.24 182.64 69.02 183.22C69.81 183.79 71.24 184.81 72.2 185.49C73.17 186.16 74.94 187.37 76.14 188.17C77.34 188.97 79.03 190.07 79.89 190.61C81.33 191.52 81.47 191.58 81.69 191.48C81.82 191.42 82.95 190.71 84.2 189.9C85.46 189.09 87.63 187.64 89.04 186.68C90.45 185.71 92.42 184.33 93.41 183.61C94.4 182.89 96.11 181.62 97.2 180.78C98.3 179.95 100.03 178.59 101.04 177.76C102.06 176.94 103.81 175.48 104.93 174.52C106.06 173.56 107.72 172.1 108.64 171.27C109.55 170.44 111.17 168.91 112.24 167.86C113.31 166.82 115.02 165.12 116.04 164.08C117.06 163.04 118.53 161.48 119.31 160.62C120.09 159.77 121.25 158.47 121.88 157.74C122.51 157.01 123.53 155.8 124.16 155.04C124.79 154.29 125.94 152.85 126.72 151.86C127.5 150.86 128.73 149.22 129.47 148.21C130.2 147.2 131.23 145.76 131.76 145.01C132.28 144.25 133.28 142.74 133.99 141.65C134.69 140.55 135.76 138.85 136.36 137.86C136.95 136.87 137.85 135.34 138.35 134.45C138.85 133.57 139.77 131.86 140.4 130.67C141.03 129.47 142 127.55 142.54 126.41C143.08 125.26 143.77 123.77 144.07 123.1C144.37 122.42 144.99 120.97 145.45 119.88C145.9 118.78 146.63 116.95 147.06 115.81C147.49 114.66 148.16 112.79 148.55 111.64C148.94 110.5 149.5 108.73 149.81 107.71C150.12 106.7 150.54 105.25 150.75 104.5C150.95 103.74 151.26 102.61 151.42 101.99C151.59 101.36 151.95 99.85 152.23 98.63C152.51 97.4 152.93 95.42 153.17 94.23C153.4 93.03 153.74 91.09 153.93 89.92C154.12 88.75 154.37 86.96 154.5 85.94C154.63 84.93 154.82 83.23 154.93 82.16C155.04 81.09 155.19 79.32 155.27 78.23C155.34 77.14 155.45 75.22 155.5 73.97C155.56 72.72 155.6 70.49 155.6 69C155.6 67.52 155.56 65.35 155.5 64.17C155.45 63 155.37 61.38 155.31 60.58C155.26 59.77 155.13 58.24 155.03 57.17C154.92 56.1 154.73 54.4 154.6 53.38C154.47 52.37 154.25 50.88 154.12 50.07C153.99 49.26 153.73 47.86 153.55 46.95C153.37 46.04 153.03 44.54 152.79 43.61C152.56 42.69 152.32 41.8 152.26 41.65C152.19 41.5 151.64 40.82 151.04 40.16C150.43 39.49 149.32 38.39 148.57 37.71C147.82 37.03 146.67 36.03 146.02 35.5C145.36 34.96 144.17 34.02 143.36 33.41C142.55 32.81 141.31 31.91 140.61 31.41C139.9 30.91 138.75 30.12 138.05 29.66C137.34 29.19 136.02 28.33 135.11 27.76C134.19 27.19 132.66 26.25 131.69 25.68C130.72 25.11 129.4 24.34 128.75 23.97C128.1 23.6 126.79 22.89 125.86 22.38C124.92 21.88 122.82 20.79 121.21 19.97C119.59 19.15 117.33 18.06 116.18 17.53C115.03 17.01 113.24 16.21 112.19 15.76C111.15 15.3 109.51 14.62 108.54 14.22C107.57 13.83 105.89 13.18 104.79 12.78C103.7 12.37 101.75 11.7 100.48 11.28C99.2 10.86 97.47 10.32 96.63 10.08C95.8 9.84 94.37 9.45 93.45 9.23C92.54 9 91.05 8.66 90.13 8.48C89.22 8.29 88.03 8.08 87.48 8C86.93 7.91 85.93 7.79 85.25 7.72C84.57 7.64 83.2 7.57 82.21 7.54C81.22 7.52 80.2 7.51 79.93 7.53Z" />
		<path class="shp1" d="M80.22 26.65C79.91 26.67 79.12 26.73 78.46 26.79C77.81 26.85 76.59 26.99 75.76 27.12C74.92 27.24 73.58 27.47 72.77 27.64C71.96 27.8 70.47 28.15 69.45 28.4C68.43 28.65 66.75 29.11 65.7 29.43C64.66 29.74 63.04 30.26 62.1 30.58C61.16 30.9 59.71 31.42 58.87 31.73C58.04 32.04 56.5 32.64 55.46 33.05C54.41 33.47 52.79 34.16 51.85 34.57C50.91 34.99 48.99 35.89 47.58 36.58C46.17 37.26 44.21 38.27 43.22 38.8C42.23 39.34 40.67 40.23 39.75 40.78C38.84 41.33 37.47 42.18 36.72 42.67C35.96 43.16 34.79 43.97 34.11 44.47C33.43 44.96 32.43 45.73 31.88 46.18C31.33 46.62 30.27 47.58 29.52 48.32C28.77 49.05 27.92 49.96 27.62 50.35C27.32 50.75 26.98 51.32 26.86 51.63C26.74 51.95 26.54 52.58 26.42 53.05C26.3 53.52 26.14 54.37 26.05 54.95C25.97 55.52 25.86 56.39 25.81 56.89C25.76 57.38 25.69 58.27 25.65 58.87C25.61 59.47 25.58 61.86 25.59 64.17C25.6 66.49 25.63 68.56 25.65 68.76C25.68 68.97 25.7 69.43 25.71 69.78L25.71 70.42L137.24 70.42C137.35 69.06 137.41 67.12 137.44 65.22C137.48 63.03 137.46 60.99 137.39 59.68C137.33 58.53 137.22 57.04 137.15 56.37C137.07 55.69 136.92 54.67 136.82 54.09C136.72 53.52 136.52 52.72 136.39 52.32C136.26 51.92 136.05 51.38 135.92 51.14C135.8 50.89 135.29 50.22 134.8 49.65C134.3 49.07 133.52 48.26 133.06 47.84C132.59 47.42 131.89 46.81 131.5 46.48C131.11 46.14 130.19 45.42 129.46 44.88C128.73 44.34 127.41 43.41 126.52 42.83C125.63 42.24 124.16 41.32 123.25 40.77C122.33 40.23 120.95 39.43 120.16 39C119.38 38.57 117.52 37.62 116.04 36.88C114.55 36.14 112.5 35.16 111.48 34.71C110.46 34.26 109.1 33.68 108.45 33.41C107.79 33.14 106.34 32.57 105.22 32.14C104.1 31.7 102.15 31 100.9 30.58C99.65 30.15 97.99 29.62 97.2 29.39C96.42 29.16 95.14 28.8 94.36 28.6C93.57 28.39 92.25 28.07 91.41 27.89C90.58 27.7 89.15 27.43 88.24 27.27C87.32 27.12 85.91 26.92 85.11 26.84C84.3 26.77 82.99 26.68 82.21 26.66C81.43 26.64 80.53 26.64 80.22 26.65Z" />
		<path class="shp0" d="M81.13 30.22C80.96 30.7 80.65 31.59 80.43 32.2L80.03 33.31C77.59 33.29 76.8 33.34 76.23 33.44C75.76 33.52 75.02 33.71 74.57 33.84C74.13 33.98 73.4 34.28 72.96 34.5C72.52 34.73 71.86 35.12 71.49 35.38C71.13 35.63 70.54 36.12 70.2 36.45C69.86 36.78 69.32 37.4 69.01 37.81C68.71 38.23 68.3 38.87 68.11 39.23C67.92 39.6 67.63 40.23 67.47 40.63C67.31 41.03 67.09 41.73 66.98 42.17L66.79 42.97C63.41 42.97 62.41 43 62.39 43.04C62.37 43.08 63.14 43.69 64.1 44.39C65.06 45.09 65.85 45.7 65.85 45.74C65.85 45.78 65.71 46.14 65.55 46.55C65.39 46.95 65.14 47.68 65.01 48.18C64.79 49 64.77 49.24 64.76 51.02C64.76 52.84 64.78 53.02 65.02 53.9C65.16 54.42 65.51 55.32 65.79 55.89C66.07 56.46 66.56 57.27 66.87 57.69C67.18 58.11 67.79 58.78 68.23 59.19C68.67 59.6 69.45 60.22 69.97 60.56C70.49 60.9 70.93 61.18 70.94 61.19C70.95 61.19 70.64 62.15 70.25 63.32C69.86 64.49 69.54 65.46 69.55 65.48C69.55 65.49 69.59 65.5 69.64 65.5C69.69 65.5 70.53 64.92 71.49 64.22C72.46 63.52 73.28 62.95 73.32 62.95C73.36 62.95 73.6 63.13 73.86 63.36C74.12 63.58 74.68 64 75.1 64.27C75.51 64.55 76.2 64.94 76.61 65.13C77.03 65.33 77.64 65.57 77.97 65.68C78.29 65.79 78.87 65.94 79.25 66.03C79.62 66.11 80.4 66.2 80.98 66.23C81.56 66.26 82.38 66.23 82.83 66.18C83.27 66.12 83.98 65.98 84.39 65.88C84.81 65.77 85.49 65.53 85.91 65.35C86.33 65.17 86.99 64.84 87.37 64.62C87.76 64.4 88.43 63.93 88.87 63.58C89.3 63.23 89.68 62.94 89.71 62.94C89.73 62.94 90.53 63.5 91.49 64.19C92.44 64.87 93.27 65.46 93.34 65.49C93.41 65.52 93.29 65.02 93.03 64.22C92.8 63.49 92.48 62.51 92.32 62.04C92.05 61.26 92.04 61.19 92.19 61.1C92.27 61.05 92.71 60.76 93.16 60.47C93.61 60.17 94.31 59.62 94.73 59.24C95.14 58.85 95.75 58.18 96.08 57.74C96.41 57.3 96.85 56.61 97.05 56.22C97.26 55.83 97.58 55.07 97.76 54.52C97.94 53.97 98.14 53.16 98.21 52.72C98.28 52.22 98.3 51.39 98.27 50.5C98.23 49.53 98.15 48.83 98.02 48.3C97.91 47.87 97.67 47.13 97.49 46.66C97.3 46.19 97.15 45.77 97.15 45.72C97.15 45.66 97.92 45.06 98.86 44.37C99.8 43.68 100.55 43.08 100.52 43.04C100.5 43 99.51 42.97 98.34 42.97L96.21 42.97C96.12 42.57 95.97 42.03 95.81 41.5C95.65 40.98 95.38 40.24 95.19 39.85C95.01 39.46 94.6 38.73 94.27 38.24C93.94 37.74 93.33 37 92.92 36.59C92.51 36.18 91.87 35.63 91.51 35.38C91.14 35.12 90.5 34.74 90.09 34.53C89.67 34.31 88.96 34.02 88.52 33.87C88.08 33.72 87.33 33.53 86.86 33.44C86.31 33.34 85.45 33.28 84.45 33.28L82.89 33.27C81.89 30.23 81.56 29.34 81.51 29.34C81.46 29.34 81.29 29.74 81.13 30.22Z" />
		<path class="shp1" d="M81.36 30.83C81.34 30.92 81.21 31.63 81.07 32.39C80.94 33.16 80.84 33.94 80.84 34.12C80.84 34.3 80.81 34.45 80.79 34.45C80.76 34.45 80.56 34.36 80.34 34.24C80.06 34.1 79.72 34.02 79.27 34C78.78 33.97 78.47 34.01 78.08 34.15C77.77 34.27 77.39 34.51 77.11 34.78C76.86 35.02 76.55 35.43 76.41 35.71C76.27 35.98 75.94 36.43 75.67 36.71C75.41 36.99 74.79 37.53 74.29 37.9C73.79 38.28 73.03 38.83 72.58 39.12C72.14 39.41 71.54 39.75 71.25 39.88C70.97 40.01 70.41 40.19 70.02 40.27C69.63 40.35 69.14 40.52 68.93 40.64C68.72 40.76 68.42 41.01 68.27 41.18C68.12 41.36 67.89 41.74 67.76 42.03C67.62 42.34 67.52 42.74 67.52 43.02C67.51 43.28 67.53 43.6 67.57 43.73L67.64 43.97C66.65 43.78 65.77 43.65 65.04 43.55C64.31 43.46 63.69 43.39 63.66 43.41C63.64 43.43 63.66 43.5 63.72 43.56C63.78 43.63 64.58 44.07 65.49 44.53L67.15 45.39C66.67 45.83 66.43 46.17 66.3 46.43C66.13 46.8 66.09 47.07 66.09 47.66C66.09 48.23 66.13 48.52 66.28 48.84C66.39 49.07 66.72 49.53 67.02 49.86C67.34 50.21 67.7 50.76 67.93 51.23C68.13 51.66 68.49 52.61 68.73 53.34C68.97 54.07 69.23 54.98 69.31 55.37C69.41 55.85 69.45 56.48 69.43 57.31C69.41 58.39 69.43 58.6 69.6 58.97C69.71 59.2 69.96 59.58 70.17 59.8C70.37 60.03 70.76 60.32 71.02 60.44C71.28 60.57 71.62 60.67 71.78 60.67C71.93 60.67 72.09 60.69 72.13 60.72C72.17 60.74 72.03 61.08 71.81 61.45C71.6 61.83 71.19 62.62 70.91 63.2C70.62 63.8 70.44 64.29 70.49 64.32C70.55 64.34 71.23 63.75 72.01 62.99L73.44 61.62C73.78 62.34 74.04 62.65 74.34 62.88C74.6 63.08 75.05 63.31 75.33 63.39C75.65 63.48 76.06 63.52 76.38 63.49C76.67 63.47 77.19 63.32 77.56 63.15C77.93 62.98 78.44 62.8 78.7 62.75C78.96 62.7 80.01 62.63 81.03 62.6C82.46 62.56 83.09 62.58 83.85 62.7C84.51 62.8 85.03 62.95 85.46 63.15C86.01 63.42 86.2 63.46 86.86 63.46C87.43 63.46 87.73 63.41 88.05 63.27C88.28 63.16 88.64 62.93 88.84 62.75C89.04 62.57 89.29 62.25 89.4 62.04C89.5 61.84 89.6 61.64 89.62 61.62C89.64 61.59 89.93 61.87 90.26 62.23C90.59 62.6 91.24 63.23 91.69 63.63C92.14 64.03 92.53 64.32 92.55 64.27C92.58 64.22 92.22 63.42 91.75 62.49C91.28 61.57 90.9 60.79 90.89 60.77C90.89 60.74 91.05 60.69 91.25 60.66C91.44 60.63 91.75 60.54 91.94 60.45C92.12 60.37 92.45 60.14 92.68 59.94C92.91 59.74 93.21 59.35 93.35 59.06C93.58 58.57 93.6 58.46 93.6 57.08C93.61 55.88 93.64 55.47 93.81 54.85C93.92 54.43 94.21 53.52 94.45 52.82C94.69 52.11 95.04 51.26 95.23 50.92C95.41 50.58 95.78 50.07 96.03 49.79C96.29 49.5 96.59 49.07 96.7 48.84C96.86 48.51 96.91 48.24 96.91 47.66C96.92 47.03 96.88 46.81 96.67 46.38C96.53 46.09 96.28 45.74 96.12 45.6L95.83 45.34C97.48 44.54 98.27 44.13 98.65 43.92C99.03 43.71 99.34 43.5 99.34 43.45C99.34 43.39 99.19 43.37 98.98 43.4C98.79 43.43 98.05 43.53 97.34 43.63C96.64 43.73 95.91 43.85 95.71 43.89L95.36 43.97C95.51 43.22 95.51 42.91 95.44 42.62C95.39 42.37 95.22 41.96 95.08 41.7C94.94 41.44 94.62 41.07 94.36 40.87C94.1 40.66 93.67 40.44 93.41 40.36C93.15 40.29 92.85 40.22 92.74 40.22C92.64 40.22 92.32 40.13 92.03 40.01C91.74 39.89 91.17 39.59 90.75 39.33C90.33 39.07 89.5 38.49 88.9 38.04C88.3 37.59 87.56 36.95 87.25 36.62C86.94 36.29 86.59 35.81 86.47 35.57C86.34 35.32 86.08 34.96 85.89 34.78C85.69 34.59 85.36 34.35 85.15 34.24C84.88 34.1 84.54 34.03 83.97 34C83.27 33.97 83.1 33.99 82.71 34.19C82.46 34.31 82.24 34.38 82.21 34.36C82.18 34.33 82.16 34.19 82.16 34.05C82.16 33.91 82.08 33.31 81.98 32.73C81.88 32.14 81.76 31.44 81.71 31.16C81.66 30.89 81.58 30.67 81.52 30.67C81.46 30.67 81.39 30.74 81.36 30.83Z" />
		<path class="shp0" d="M78.32 34.47C78.17 34.53 77.86 34.7 77.63 34.85C77.35 35.04 77.1 35.35 76.78 35.89C76.47 36.42 76.11 36.86 75.62 37.31C75.23 37.67 74.37 38.34 73.72 38.81C73.07 39.27 72.17 39.84 71.73 40.07C71.28 40.3 70.6 40.55 70.21 40.64C69.81 40.73 69.3 40.92 69.05 41.08C68.79 41.24 68.47 41.56 68.31 41.81C68.16 42.06 67.99 42.45 67.94 42.69C67.88 42.95 67.88 43.26 67.94 43.49C67.99 43.7 68.09 43.97 68.17 44.08C68.25 44.2 68.34 44.3 68.38 44.29C68.42 44.29 68.64 44.46 68.86 44.67C69.18 44.98 69.44 45.11 70.19 45.33C70.69 45.49 71.41 45.67 71.78 45.73C72.3 45.82 72.58 45.82 73.1 45.73C73.66 45.63 73.82 45.63 74.1 45.74C74.28 45.81 74.53 46 74.65 46.15C74.79 46.33 74.86 46.55 74.86 46.78C74.86 47.02 74.78 47.23 74.62 47.42C74.48 47.59 74.26 47.73 74.08 47.76C73.91 47.79 73.64 47.78 73.48 47.74C73.33 47.71 72.92 47.42 72.58 47.1C72.19 46.74 71.72 46.42 71.3 46.23C70.94 46.06 70.28 45.82 69.85 45.68C69.15 45.46 68.99 45.44 68.34 45.51C67.82 45.56 67.51 45.65 67.29 45.8C67.12 45.92 66.86 46.24 66.72 46.51C66.52 46.9 66.47 47.12 66.47 47.66C66.47 48.16 66.52 48.42 66.68 48.72C66.79 48.94 67.11 49.37 67.38 49.67C67.7 50.02 68.03 50.54 68.32 51.16C68.57 51.68 68.94 52.66 69.16 53.34C69.37 54.01 69.62 54.91 69.7 55.32C69.82 55.89 69.84 56.34 69.8 57.08C69.75 57.81 69.77 58.19 69.87 58.54C69.95 58.81 70.17 59.2 70.37 59.43C70.57 59.67 70.94 59.95 71.21 60.07C71.47 60.19 71.85 60.29 72.06 60.3C72.29 60.3 72.53 60.23 72.68 60.12C72.81 60.02 73.1 59.85 73.32 59.74C73.6 59.59 73.87 59.32 74.25 58.8C74.54 58.4 74.94 57.73 75.15 57.31C75.39 56.83 75.56 56.33 75.62 55.94C75.69 55.41 75.75 55.28 76.04 55.02C76.3 54.78 76.46 54.71 76.76 54.71C76.96 54.71 77.22 54.75 77.33 54.8C77.43 54.86 77.58 55.03 77.66 55.18C77.74 55.34 77.8 55.58 77.8 55.73C77.8 55.87 77.71 56.14 77.59 56.32C77.45 56.53 77.16 56.75 76.8 56.93C76.46 57.1 75.99 57.45 75.62 57.83C75.28 58.17 74.78 58.78 74.5 59.18C74.23 59.59 74 60.02 74 60.15C74 60.28 73.95 60.53 73.87 60.7C73.78 60.92 73.76 61.12 73.83 61.43C73.87 61.66 74.03 62 74.18 62.19C74.33 62.37 74.68 62.65 74.96 62.8C75.4 63.04 75.57 63.08 76.14 63.08C76.67 63.07 76.92 63.01 77.42 62.78C77.76 62.62 78.29 62.43 78.61 62.36C79.01 62.27 79.87 62.23 81.55 62.24C83.47 62.24 84.04 62.27 84.56 62.4C84.91 62.49 85.42 62.68 85.7 62.81C85.97 62.95 86.39 63.08 86.62 63.11C86.87 63.14 87.26 63.1 87.57 63.01C87.92 62.91 88.25 62.73 88.55 62.45C88.81 62.22 89.07 61.88 89.15 61.67C89.26 61.4 89.28 61.15 89.23 60.81C89.19 60.55 89.09 60.17 89 59.96C88.9 59.75 88.64 59.33 88.41 59.02C88.18 58.7 87.73 58.18 87.42 57.85C87.03 57.43 86.68 57.16 86.27 56.97C85.94 56.82 85.59 56.58 85.48 56.44C85.38 56.29 85.26 56.05 85.23 55.89C85.19 55.7 85.24 55.48 85.36 55.23C85.5 54.94 85.64 54.82 85.92 54.72C86.25 54.61 86.33 54.62 86.66 54.77C86.86 54.87 87.1 55.07 87.19 55.23C87.28 55.39 87.38 55.75 87.42 56.03C87.45 56.32 87.62 56.85 87.8 57.22C87.97 57.58 88.36 58.22 88.66 58.64C88.95 59.05 89.31 59.49 89.45 59.62C89.59 59.74 89.92 59.94 90.18 60.06C90.44 60.19 90.81 60.29 90.99 60.29C91.17 60.29 91.49 60.21 91.7 60.12C91.91 60.02 92.22 59.82 92.4 59.67C92.58 59.52 92.83 59.18 92.97 58.92C93.2 58.47 93.22 58.39 93.19 57.22C93.17 56.35 93.21 55.76 93.32 55.23C93.41 54.81 93.67 53.9 93.89 53.19C94.12 52.49 94.52 51.49 94.78 50.97C95.06 50.39 95.41 49.85 95.68 49.57C95.92 49.33 96.2 48.95 96.3 48.75C96.41 48.54 96.52 48.19 96.55 47.96C96.58 47.74 96.56 47.35 96.5 47.09C96.44 46.83 96.27 46.44 96.11 46.21C95.94 45.98 95.66 45.74 95.42 45.62C95.16 45.5 94.81 45.44 94.43 45.44C94.04 45.43 93.58 45.52 93.1 45.68C92.69 45.81 92.01 46.09 91.58 46.29C91.05 46.54 90.65 46.81 90.35 47.14C90.04 47.45 89.77 47.64 89.52 47.71C89.25 47.78 89.05 47.78 88.83 47.71C88.66 47.66 88.43 47.49 88.33 47.35C88.2 47.18 88.14 46.95 88.14 46.69C88.14 46.37 88.2 46.23 88.43 46C88.58 45.84 88.85 45.69 89.02 45.66C89.19 45.63 89.56 45.65 89.85 45.72C90.14 45.78 90.58 45.81 90.85 45.78C91.11 45.75 91.74 45.61 92.24 45.48C92.75 45.35 93.42 45.12 93.72 44.97C94.02 44.82 94.4 44.55 94.57 44.36C94.74 44.17 94.92 43.91 94.97 43.78C95.02 43.65 95.07 43.34 95.06 43.09C95.06 42.84 95.01 42.49 94.94 42.31C94.88 42.12 94.71 41.81 94.57 41.62C94.43 41.43 94.08 41.14 93.81 40.99C93.54 40.83 93.06 40.67 92.74 40.61C92.41 40.56 91.81 40.34 91.32 40.09C90.85 39.85 89.93 39.28 89.28 38.81C88.63 38.35 87.77 37.67 87.38 37.31C86.94 36.9 86.53 36.42 86.29 36.01C86.08 35.65 85.78 35.23 85.63 35.07C85.47 34.91 85.17 34.7 84.96 34.6C84.68 34.45 84.39 34.41 83.82 34.41C83.16 34.41 83 34.44 82.71 34.64C82.52 34.77 82.25 35.05 82.12 35.26C81.99 35.47 81.83 35.87 81.77 36.16C81.71 36.48 81.69 37.11 81.72 37.81C81.75 38.44 81.85 39.18 81.93 39.47C82.02 39.76 82.2 40.18 82.33 40.42C82.53 40.76 82.56 40.92 82.52 41.27C82.48 41.58 82.39 41.76 82.17 41.95C81.96 42.15 81.78 42.21 81.5 42.21C81.19 42.21 81.06 42.15 80.79 41.88C80.52 41.62 80.46 41.48 80.46 41.17C80.46 40.94 80.58 40.54 80.79 40.11C81.07 39.52 81.13 39.26 81.22 38.29C81.28 37.67 81.3 36.9 81.26 36.59C81.23 36.27 81.11 35.82 81.01 35.59C80.91 35.35 80.73 35.06 80.62 34.94C80.5 34.81 80.24 34.63 80.03 34.54C79.8 34.43 79.45 34.37 79.13 34.37C78.84 34.37 78.48 34.42 78.32 34.47Z" />
		<path class="shp1" d="M73.86 35.87L72.34 36.61C70.43 38.51 69.92 39.09 69.97 39.12C70.02 39.14 70.76 38.84 71.61 38.44L73.15 37.72C74.99 35.77 75.52 35.19 75.52 35.16C75.52 35.14 75.49 35.12 75.45 35.12C75.41 35.12 74.7 35.46 73.86 35.87ZM87.57 35.28C87.57 35.32 88.11 35.92 88.78 36.6L89.99 37.86C92.2 38.87 92.87 39.15 92.91 39.13C92.95 39.11 92.48 38.56 91.87 37.91L90.75 36.72C88.36 35.55 87.65 35.21 87.62 35.21C87.59 35.21 87.57 35.24 87.57 35.28ZM79.79 42.77C79.45 42.86 78.98 43.02 78.75 43.13C78.51 43.23 78.1 43.46 77.84 43.64C77.57 43.82 77.21 44.09 77.03 44.25C76.85 44.41 76.5 44.79 76.24 45.1C75.98 45.41 75.63 45.97 75.46 46.33C75.29 46.7 75.08 47.27 74.99 47.61C74.89 48 74.83 48.6 74.83 49.22C74.83 49.96 74.88 50.41 75.04 50.97C75.16 51.39 75.4 52 75.58 52.34C75.76 52.68 76.16 53.26 76.48 53.62C76.8 53.98 77.26 54.42 77.5 54.6C77.74 54.77 78.24 55.06 78.61 55.23C78.97 55.41 79.57 55.62 79.93 55.71C80.31 55.8 80.99 55.87 81.5 55.87C82.01 55.87 82.69 55.8 83.07 55.71C83.43 55.62 84.09 55.38 84.54 55.16C85.19 54.84 85.5 54.61 86.2 53.91C86.9 53.22 87.14 52.9 87.46 52.25C87.68 51.81 87.93 51.17 88.02 50.83C88.12 50.44 88.17 49.85 88.17 49.22C88.17 48.59 88.11 48 88.01 47.61C87.92 47.27 87.67 46.63 87.45 46.19C87.13 45.54 86.9 45.23 86.2 44.53C85.5 43.83 85.2 43.6 84.54 43.28C84.09 43.07 83.45 42.83 83.11 42.74C82.73 42.65 82.1 42.6 81.45 42.6C80.76 42.6 80.2 42.66 79.79 42.77Z" />
		<path class="shp2" d="M80.69 42.96C80.43 43 80.1 43.07 79.96 43.1C79.73 43.15 79.7 43.2 79.72 43.46C79.74 43.76 79.77 43.77 80.55 43.99C81.23 44.18 81.43 44.2 81.83 44.12C82.09 44.07 82.55 43.96 82.85 43.88C83.36 43.74 83.4 43.71 83.4 43.45C83.4 43.18 83.36 43.16 82.95 43.07C82.7 43.03 82.2 42.96 81.83 42.94C81.47 42.91 80.95 42.92 80.69 42.96Z" />
		<path class="shp0" d="M78.84 43.5C78.56 43.64 78.13 43.88 77.89 44.04C77.66 44.21 77.31 44.49 77.11 44.67C76.91 44.86 76.75 45.04 76.75 45.08C76.75 45.12 76.87 45.19 77.02 45.23L77.28 45.31C77.13 47.17 77.14 47.39 77.25 47.44C77.32 47.48 77.78 47.68 78.27 47.9L79.18 48.29L81.41 46.85L81.36 44.44C80.77 44.26 80.35 44.14 80.05 44.06C79.52 43.92 79.51 43.91 79.51 43.59C79.51 43.41 79.48 43.26 79.44 43.26C79.4 43.26 79.13 43.37 78.84 43.5ZM83.57 43.57C83.54 43.85 83.5 43.88 83.02 44.03C82.73 44.11 82.3 44.24 82.07 44.31L81.64 44.44C81.61 46.2 81.63 46.76 81.67 46.82C81.71 46.88 82.23 47.26 82.83 47.67L83.92 48.42L85.91 47.84C85.95 46.67 85.98 46.24 86.01 46.12C86.04 45.99 86.18 45.85 86.39 45.76L86.72 45.62C86.09 44.86 85.66 44.45 85.34 44.22C85.03 43.99 84.6 43.72 84.39 43.61C84.19 43.51 83.92 43.39 83.8 43.34C83.61 43.27 83.59 43.3 83.57 43.57Z" />
		<path class="shp2" d="M76.33 45.56C76.2 45.72 75.95 46.18 75.77 46.57C75.59 46.96 75.38 47.58 75.31 47.94C75.23 48.31 75.19 48.63 75.23 48.66C75.26 48.7 75.38 48.75 75.5 48.78C75.68 48.83 75.81 48.72 76.31 48.11L76.91 47.37C77.03 45.98 77.04 45.53 77.02 45.48C76.99 45.43 76.88 45.36 76.76 45.32C76.6 45.27 76.5 45.33 76.33 45.56ZM86.51 45.92C86.26 46.01 86.25 46.04 86.19 46.93L86.12 47.85C87.03 49.32 87.19 49.5 87.36 49.5C87.48 49.5 87.64 49.48 87.71 49.46C87.8 49.43 87.86 49.29 87.86 49.08C87.86 48.89 87.79 48.42 87.71 48.01C87.63 47.61 87.41 46.95 87.22 46.54C87.02 46.14 86.84 45.81 86.81 45.82C86.79 45.82 86.65 45.87 86.51 45.92ZM80.46 47.7C79.91 48.07 79.43 48.38 79.38 48.39C79.34 48.4 79.43 48.93 79.59 49.55C79.74 50.18 79.89 50.8 79.92 50.95L79.98 51.21L82.78 51.21C83.41 49.04 83.59 48.41 83.57 48.41C83.55 48.4 83.13 48.12 82.64 47.78C82.14 47.43 81.67 47.13 81.59 47.1C81.51 47.06 81.05 47.31 80.46 47.7Z" />
		<path class="shp0" d="M76.36 48.33C75.78 49.03 75.75 49.05 75.43 48.98L75.1 48.92C75.21 49.99 75.31 50.56 75.39 50.88C75.48 51.19 75.69 51.74 75.87 52.11L76.2 52.77L76.71 52.24C77.92 52.83 78.33 53 78.39 53C78.46 53 78.62 52.84 78.75 52.65C78.89 52.45 79.17 52.04 79.39 51.73L79.79 51.16L79.12 48.51C77.62 47.82 77.13 47.61 77.08 47.61C77.02 47.61 76.7 47.93 76.36 48.33ZM84.77 48.38C84.25 48.53 83.8 48.68 83.77 48.72C83.73 48.76 83.53 49.38 83.31 50.09L82.92 51.4C83.99 52.64 84.34 53 84.39 53C84.45 53 84.88 52.84 85.36 52.65L86.24 52.3C86.57 52.62 86.7 52.72 86.74 52.72C86.78 52.72 86.96 52.43 87.14 52.08C87.31 51.73 87.52 51.21 87.6 50.92C87.68 50.64 87.77 50.22 87.8 50C87.85 49.63 87.84 49.6 87.67 49.65C87.56 49.67 87.39 49.71 87.29 49.74C87.13 49.78 87 49.63 86.55 48.94C86.24 48.46 85.94 48.09 85.86 48.09C85.79 48.1 85.3 48.23 84.77 48.38Z" />
		<path class="shp1" d="M66.16 50.76C66.18 50.87 66.3 51.63 66.42 52.44L66.63 53.9C67.79 56.14 68.16 56.81 68.22 56.84C68.27 56.86 68.31 56.77 68.31 56.63C68.31 56.48 68.23 55.72 68.12 54.92L67.93 53.48C66.68 51.2 66.27 50.54 66.21 50.54C66.15 50.54 66.12 50.63 66.16 50.76ZM95.79 52.13L94.98 53.62C94.68 55.89 94.59 56.65 94.59 56.77C94.59 56.88 94.63 56.98 94.66 56.98C94.7 56.98 95.08 56.33 95.49 55.54L96.25 54.09C96.62 51.48 96.7 50.7 96.67 50.68C96.63 50.66 96.24 51.31 95.79 52.13Z" />
		<path class="shp0" d="M79.26 52.24C78.92 52.71 78.63 53.13 78.64 53.17C78.64 53.21 78.93 53.56 79.26 53.95C79.83 54.61 79.87 54.68 79.74 54.85C79.67 54.96 79.61 55.09 79.61 55.16C79.6 55.22 79.82 55.33 80.1 55.39C80.37 55.45 81 55.5 81.5 55.5C82 55.5 82.63 55.45 82.9 55.39L83.4 55.28C83.18 54.91 83.11 54.77 83.11 54.73C83.11 54.69 83.35 54.34 83.63 53.95C83.92 53.56 84.15 53.2 84.13 53.15C84.11 53.1 83.78 52.68 83.39 52.23L82.69 51.41L79.9 51.4L79.26 52.24Z" />
		<path class="shp2" d="M76.51 52.72C76.33 52.91 76.33 52.92 76.62 53.27C76.78 53.46 77.17 53.82 77.48 54.07C77.78 54.32 78.27 54.65 78.56 54.8C78.85 54.96 79.16 55.08 79.25 55.08C79.34 55.09 79.46 55 79.51 54.9C79.59 54.74 79.51 54.59 79.01 53.99C78.5 53.37 78.31 53.22 77.66 52.9C77.24 52.69 76.85 52.53 76.79 52.53C76.74 52.53 76.61 52.62 76.51 52.72ZM85.26 52.9C84.44 53.23 84.39 53.27 83.86 53.98C83.32 54.68 83.31 54.72 83.44 54.95C83.58 55.18 83.59 55.18 83.94 55.04C84.14 54.96 84.53 54.75 84.81 54.59C85.08 54.42 85.56 54.06 85.87 53.79C86.18 53.51 86.46 53.19 86.49 53.08C86.52 52.94 86.48 52.8 86.37 52.69C86.27 52.6 86.18 52.53 86.15 52.54C86.12 52.54 85.72 52.71 85.26 52.9Z" />
		<path class="shp1" d="M79.65 63.66C78.76 63.84 78.02 64 77.99 64.03C77.96 64.06 78.01 64.1 78.08 64.12C78.16 64.14 78.93 64.28 79.79 64.42L81.36 64.67C84.01 64.24 84.71 64.09 84.69 64.03C84.68 63.98 83.94 63.8 83.06 63.63C82.19 63.46 81.42 63.33 81.37 63.33C81.31 63.34 80.54 63.49 79.65 63.66ZM25 79.34C25.03 79.93 25.1 81.19 25.15 82.16C25.2 83.12 25.31 84.59 25.39 85.42C25.47 86.26 25.54 86.95 25.55 86.96C25.56 86.97 27.33 85.05 29.47 82.7C31.62 80.34 33.36 78.39 33.34 78.35C33.32 78.31 31.42 78.28 29.13 78.28L24.95 78.28L25 79.34ZM41.18 81.99C39.32 84.03 37.3 86.25 36.67 86.94C36.04 87.62 33.72 90.17 31.5 92.61C29.28 95.05 27.41 97.14 27.33 97.25C27.22 97.41 27.22 97.53 27.32 97.96C27.38 98.25 27.67 99.42 27.95 100.57C28.23 101.71 28.69 103.46 28.97 104.45C29.26 105.44 29.73 106.98 30.02 107.88C30.31 108.78 30.59 109.53 30.65 109.56C30.7 109.59 33.4 106.68 36.65 103.1C39.91 99.52 44.68 94.27 47.26 91.43C49.84 88.6 53.56 84.51 55.53 82.35C57.49 80.19 59.08 78.39 59.06 78.35C59.03 78.31 55.76 78.28 51.78 78.28L44.54 78.28L41.18 81.99Z" />
		<path class="shp0" d="M69.64 119.9L69.63 161.52C73.13 164.79 74.14 165.64 74.95 166.21C75.61 166.66 76.91 167.54 77.85 168.17C78.79 168.79 79.98 169.57 80.5 169.89C81.33 170.41 81.48 170.47 81.67 170.38C81.78 170.33 82.68 169.76 83.66 169.13C84.64 168.5 86.31 167.38 87.38 166.65C89.02 165.52 89.63 165.02 91.34 163.44L93.36 161.57L93.36 78.28L69.64 78.28L69.64 119.9Z" />
		<path class="shp1" d="M103.95 78.35C103.93 78.39 105.3 79.95 107.01 81.83C108.71 83.71 112.45 87.82 115.31 90.97C118.18 94.11 123.16 99.59 126.39 103.15C129.62 106.7 132.29 109.61 132.33 109.61C132.37 109.61 132.69 108.73 133.04 107.65C133.39 106.56 133.92 104.83 134.21 103.79C134.51 102.74 134.98 100.93 135.26 99.76C135.54 98.59 135.77 97.56 135.77 97.47C135.77 97.38 133.63 94.95 131.01 92.07C128.39 89.2 124.5 84.92 122.35 82.56L118.45 78.28C107.25 78.28 103.98 78.31 103.95 78.35ZM129.66 78.35C129.64 78.39 130.13 78.97 130.76 79.65C131.38 80.33 133.12 82.23 134.61 83.88C136.11 85.53 137.37 86.85 137.41 86.81C137.45 86.78 137.52 86.41 137.57 85.99C137.61 85.58 137.68 84.94 137.71 84.57C137.74 84.21 137.8 83.19 137.85 82.3C137.9 81.42 137.97 80.15 137.99 79.48L138.05 78.28C131.58 78.28 129.69 78.31 129.66 78.35ZM87.19 81.03C86.96 81.08 86.47 81.26 86.1 81.43C85.74 81.61 85.21 81.94 84.94 82.17C84.67 82.4 84.23 82.86 83.95 83.2C83.64 83.59 83.17 84.41 82.67 85.45L81.88 87.08C81.4 86.99 81.05 86.88 80.79 86.77C80.53 86.67 80.19 86.51 80.03 86.41L79.74 86.24C79.64 86.78 79.6 86.99 79.6 87.06C79.6 87.12 79.83 87.28 80.1 87.41C80.37 87.54 80.82 87.7 81.1 87.76C81.49 87.86 81.59 87.92 81.54 88.03C81.5 88.1 81.14 89.08 80.72 90.2C80.31 91.32 79.78 92.75 79.54 93.37C79.3 94 78.96 94.81 78.78 95.17L78.47 95.84C77.47 95.59 76.84 95.51 76.42 95.51C76.01 95.51 75.4 95.57 75.07 95.65C74.75 95.72 74.19 95.93 73.85 96.1C73.5 96.26 73.01 96.59 72.76 96.83C72.51 97.06 72.22 97.45 72.11 97.68C72.01 97.92 71.92 98.25 71.92 98.41C71.92 98.58 71.97 98.86 72.04 99.03C72.11 99.2 72.29 99.46 72.45 99.6C72.6 99.75 73 99.95 73.34 100.05C73.68 100.16 74.34 100.27 74.81 100.3C75.52 100.35 75.78 100.33 76.33 100.16C76.69 100.05 77.27 99.78 77.61 99.56C77.95 99.35 78.45 98.93 78.73 98.64C79 98.35 79.23 98.08 79.23 98.04C79.22 98 79.28 97.96 79.34 97.96C79.41 97.96 79.69 98.12 79.98 98.31C80.27 98.51 80.91 98.86 81.41 99.11C81.9 99.36 82.57 99.65 82.9 99.76C83.23 99.86 83.76 99.99 84.09 100.04C84.41 100.08 84.96 100.1 85.3 100.08C85.63 100.05 86.27 99.95 86.72 99.85C87.16 99.74 87.84 99.49 88.24 99.29C88.63 99.09 89.24 98.65 89.6 98.32C89.96 98 90.45 97.43 90.69 97.07C91.06 96.5 91.13 96.33 91.13 95.93C91.13 95.56 91.1 95.46 90.96 95.44C90.87 95.42 90.51 95.65 90.16 95.95C89.81 96.24 89.24 96.67 88.9 96.89C88.56 97.1 88.06 97.37 87.79 97.48C87.38 97.64 87.08 97.68 86.17 97.68C85.56 97.68 84.67 97.62 84.2 97.54C83.73 97.47 83.07 97.32 82.73 97.22C82.39 97.11 81.74 96.88 81.29 96.69C80.83 96.51 80.46 96.32 80.46 96.28C80.46 96.25 80.65 95.89 80.87 95.5C81.1 95.11 81.62 94.13 82.02 93.33C82.43 92.52 82.94 91.41 83.16 90.87C83.39 90.32 83.68 89.51 83.82 89.07L84.07 88.26C84.76 88.14 85.33 87.97 85.77 87.82C86.21 87.66 86.83 87.4 87.15 87.25C87.46 87.09 87.97 86.79 88.28 86.58C88.6 86.36 89.07 85.98 89.34 85.71C89.61 85.44 89.98 84.92 90.19 84.52C90.54 83.85 90.56 83.77 90.56 82.94C90.56 82.08 90.56 82.07 90.23 81.74C90.05 81.55 89.68 81.31 89.42 81.2C89.14 81.08 88.68 80.99 88.28 80.97C87.92 80.95 87.43 80.98 87.19 81.03Z" />
		<path class="shp0" d="M87.15 82.43C86.99 82.47 86.7 82.6 86.51 82.72C86.32 82.84 86.04 83.1 85.9 83.28C85.72 83.51 85.43 84.2 85.07 85.28C84.77 86.19 84.55 86.96 84.58 86.99C84.62 87.01 85.06 86.89 85.56 86.72C86.07 86.55 86.76 86.24 87.1 86.05C87.44 85.85 87.85 85.53 88.02 85.34C88.19 85.15 88.42 84.82 88.53 84.6C88.64 84.37 88.75 84 88.77 83.77C88.81 83.45 88.77 83.26 88.62 83.03C88.51 82.86 88.33 82.67 88.21 82.59C88.1 82.52 87.87 82.44 87.71 82.41C87.56 82.39 87.3 82.39 87.15 82.43Z" />
		<path class="shp1" d="M58.52 91.22C56.78 93.13 51.79 98.62 47.43 103.41C43.08 108.2 38.3 113.45 36.81 115.08C35.33 116.71 34.1 118.1 34.08 118.16C34.06 118.22 34.78 119.72 35.67 121.49C36.55 123.26 37.73 125.49 38.28 126.46C38.83 127.42 39.32 128.24 39.35 128.28C39.39 128.32 40.81 126.82 42.5 124.96C44.2 123.1 48.49 118.39 52.04 114.48C55.59 110.58 59.25 106.55 60.17 105.54L61.85 103.69C61.88 90.53 61.85 87.83 61.78 87.8C61.73 87.77 60.26 89.31 58.52 91.22ZM101.14 95.72L101.14 103.69C105.35 108.31 109.06 112.38 112.09 115.71C115.12 119.04 118.95 123.25 120.59 125.06C122.87 127.57 123.6 128.32 123.68 128.23C123.74 128.16 124.26 127.28 124.83 126.27C125.41 125.25 126.33 123.55 126.88 122.48C127.42 121.41 128.12 120 128.43 119.33L128.99 118.12C128.46 117.58 126.86 115.82 125.09 113.87C123.32 111.92 119.95 108.21 117.6 105.63C115.25 103.05 110.63 97.97 107.33 94.34C104.03 90.71 101.29 87.74 101.23 87.74C101.17 87.74 101.14 90.46 101.14 95.72Z" />
		<path class="shp0" d="M75.18 96.33C74.91 96.42 74.55 96.63 74.39 96.78C74.22 96.94 74.02 97.18 73.95 97.33C73.88 97.47 73.81 97.72 73.81 97.89C73.81 98.07 73.88 98.27 73.98 98.36C74.07 98.44 74.24 98.56 74.36 98.62C74.48 98.67 74.84 98.72 75.17 98.73C75.61 98.73 75.88 98.67 76.23 98.5C76.5 98.37 76.9 98.06 77.14 97.8C77.37 97.54 77.63 97.22 77.7 97.08C77.84 96.85 77.83 96.82 77.66 96.69C77.55 96.61 77.28 96.49 77.04 96.4C76.81 96.32 76.4 96.24 76.14 96.21C75.82 96.18 75.5 96.22 75.18 96.33Z" />
		<path class="shp1" d="M78.27 104.37C77.99 104.45 77.5 104.64 77.2 104.81C76.89 104.98 76.39 105.38 76.08 105.7C75.77 106.03 75.52 106.35 75.52 106.41C75.52 106.48 75.63 106.64 75.77 106.77L76.01 107C76.47 106.42 76.76 106.1 76.94 105.93C77.13 105.75 77.48 105.51 77.73 105.38C78.05 105.22 78.34 105.16 78.75 105.16C79.23 105.16 79.35 105.2 79.56 105.4C79.75 105.59 79.79 105.72 79.79 106.15C79.79 106.46 79.71 106.9 79.59 107.22C79.47 107.52 79.08 108.29 78.72 108.94C78.35 109.6 77.6 110.89 77.06 111.83C76.51 112.77 75.66 114.2 75.16 115C74.52 116.03 74.16 116.74 73.94 117.37C73.76 117.88 73.6 118.57 73.57 118.98C73.52 119.51 73.54 119.83 73.67 120.26C73.79 120.69 73.93 120.92 74.27 121.25C74.6 121.57 74.86 121.72 75.29 121.84C75.64 121.94 76.2 122.01 76.76 122.01C77.26 122.01 77.9 121.94 78.2 121.87C78.5 121.79 78.99 121.6 79.29 121.45C79.59 121.3 80.1 120.97 80.41 120.71C80.72 120.45 81.11 120.06 81.26 119.84C81.42 119.63 81.58 119.45 81.62 119.45C81.66 119.45 81.72 119.61 81.76 119.81C81.79 120 81.98 120.4 82.17 120.68C82.35 120.97 82.68 121.34 82.88 121.5C83.09 121.67 83.51 121.92 83.82 122.06C84.35 122.3 84.47 122.31 85.3 122.27C85.99 122.24 86.29 122.18 86.62 122.01C86.86 121.89 87.17 121.68 87.32 121.55C87.47 121.41 87.7 121.08 87.84 120.82C88.05 120.42 88.09 120.24 88.09 119.59C88.08 119.1 88.03 118.71 87.92 118.48C87.79 118.2 87.71 118.13 87.5 118.13C87.36 118.12 87.14 118.19 87.03 118.27C86.83 118.4 86.82 118.44 86.92 118.76C86.98 118.96 87 119.27 86.97 119.45C86.94 119.64 86.79 119.9 86.62 120.07C86.34 120.33 86.28 120.35 85.58 120.35C84.85 120.35 84.82 120.34 84.49 120.02C84.29 119.83 84.11 119.53 84.05 119.31C83.99 119.1 83.98 118.74 84.02 118.5C84.05 118.27 84.19 117.78 84.32 117.42C84.45 117.05 84.96 115.9 85.44 114.86C85.93 113.82 86.85 111.88 87.5 110.55C88.16 109.23 89.04 107.48 89.46 106.67C89.88 105.87 90.23 105.13 90.23 105.04C90.23 104.94 90.14 104.86 90.02 104.83C89.9 104.81 89.42 104.75 88.95 104.69L88.09 104.59C87.73 105.02 87.22 105.94 86.73 106.92C86.24 107.91 84.88 110.73 83.71 113.2C82.54 115.68 81.45 117.91 81.28 118.16C81.11 118.42 80.72 118.87 80.41 119.16C80.1 119.45 79.54 119.84 79.18 120.02C78.62 120.29 78.37 120.35 77.69 120.4C76.88 120.44 76.87 120.44 76.6 120.16C76.42 119.98 76.3 119.73 76.25 119.45C76.2 119.16 76.23 118.8 76.34 118.32C76.44 117.88 76.71 117.2 77.04 116.56C77.34 115.99 78.02 114.76 78.56 113.82C79.1 112.88 79.94 111.39 80.44 110.51C80.93 109.62 81.55 108.47 81.8 107.95C82.15 107.24 82.26 106.9 82.26 106.58C82.26 106.33 82.16 105.95 82.02 105.66C81.87 105.34 81.66 105.08 81.43 104.92C81.23 104.79 80.83 104.6 80.53 104.5C80.23 104.39 79.72 104.29 79.39 104.27C79.06 104.26 78.56 104.3 78.27 104.37ZM60.33 117.53C59.58 118.35 56.25 122.01 52.94 125.65C49.63 129.29 46.9 132.3 46.87 132.32C46.85 132.35 46.18 133.07 45.4 133.92L43.98 135.46C44.48 136.15 45.14 137.03 45.77 137.86C46.4 138.69 47.44 140.04 48.09 140.84C48.74 141.65 49.62 142.71 50.04 143.19C50.46 143.68 50.83 144.06 50.86 144.04C50.89 144.03 51.34 143.55 51.86 142.98C52.37 142.41 54.84 139.71 57.33 136.97L61.86 131.99C61.86 119.54 61.82 116.04 61.78 116.04C61.73 116.04 61.08 116.71 60.33 117.53ZM101.14 124.02L101.15 131.99C104.56 135.74 106.55 137.93 107.78 139.28C109.01 140.62 110.48 142.25 111.05 142.88C111.63 143.52 112.14 144.04 112.19 144.02C112.25 144.01 112.86 143.32 113.56 142.49C114.25 141.66 115.32 140.35 115.94 139.56C116.55 138.78 117.45 137.59 117.94 136.91C118.44 136.24 118.87 135.63 118.91 135.57C118.95 135.49 117.58 133.91 115.11 131.2C112.98 128.86 109.02 124.5 106.31 121.51C103.6 118.51 101.32 116.06 101.26 116.05C101.16 116.05 101.14 117.7 101.14 124.02ZM90.88 125.75C90.76 125.89 90.53 126.14 90.37 126.29C90.21 126.44 89.94 126.6 89.75 126.65C89.57 126.7 89.06 126.79 88.62 126.85C88.07 126.92 87.14 126.93 85.77 126.89C84.65 126.85 82.94 126.8 81.97 126.78C81.01 126.77 79.9 126.79 79.51 126.84C79.12 126.89 78.45 127.03 78.04 127.14C77.62 127.25 77.09 127.48 76.85 127.63C76.62 127.79 76.3 128.13 76.14 128.39C75.9 128.79 75.85 128.95 75.85 129.49C75.85 130.05 75.89 130.18 76.14 130.54C76.35 130.83 76.62 131.05 77.08 131.28C77.63 131.56 77.83 131.61 78.36 131.61C78.8 131.61 79.07 131.56 79.25 131.45C79.47 131.31 79.49 131.26 79.39 131.12C79.32 131.04 79.01 130.85 78.7 130.71C78.39 130.57 78.06 130.39 77.97 130.3C77.87 130.22 77.8 130.04 77.8 129.91C77.8 129.78 77.86 129.56 77.93 129.41C78 129.27 78.17 129.08 78.31 128.99C78.45 128.9 78.8 128.76 79.1 128.68C79.4 128.6 80.06 128.52 80.55 128.5C81.05 128.48 81.6 128.49 81.77 128.52L82.09 128.58C81.99 129.39 81.85 130.14 81.72 130.76C81.59 131.39 81.42 132.13 81.34 132.42C81.27 132.7 81.1 133.27 80.97 133.67C80.78 134.27 80.7 134.41 80.53 134.45C80.41 134.47 80.02 134.51 79.65 134.54C79.28 134.57 78.71 134.67 78.37 134.78C78.03 134.88 77.54 135.1 77.28 135.28C77.02 135.45 76.71 135.76 76.59 135.97C76.44 136.25 76.38 136.5 76.38 136.94C76.38 137.43 76.42 137.58 76.61 137.81C76.74 137.97 76.92 138.1 76.99 138.1C77.1 138.1 77.15 137.95 77.2 137.55C77.25 137.11 77.31 136.95 77.55 136.72C77.72 136.56 78.05 136.38 78.32 136.31C78.58 136.24 79.12 136.19 79.51 136.19C79.9 136.2 80.23 136.21 80.25 136.23C80.27 136.24 80.12 136.74 79.93 137.34C79.73 137.94 79.38 138.9 79.13 139.47C78.89 140.04 78.5 140.83 78.27 141.22C78.05 141.61 77.66 142.13 77.43 142.37C77.09 142.71 76.85 142.85 76.33 143.01C75.81 143.17 75.56 143.2 75.19 143.15C74.92 143.11 74.61 142.99 74.46 142.86C74.29 142.72 74.14 142.45 74.05 142.12C73.96 141.79 73.85 141.58 73.74 141.55C73.65 141.52 73.51 141.57 73.44 141.65C73.35 141.74 73.3 141.96 73.3 142.24C73.31 142.49 73.39 142.83 73.47 143C73.56 143.16 73.76 143.46 73.93 143.65C74.1 143.84 74.46 144.1 74.72 144.24C75.14 144.46 75.3 144.48 76.23 144.48C77.19 144.49 77.33 144.46 77.85 144.22C78.16 144.07 78.65 143.76 78.94 143.54C79.23 143.31 79.68 142.86 79.95 142.53C80.21 142.2 80.63 141.63 80.86 141.27C81.1 140.9 81.51 140.16 81.78 139.61C82.05 139.07 82.42 138.15 82.61 137.58L82.95 136.54C84.14 136.59 84.79 136.56 85.15 136.49C85.52 136.43 85.99 136.28 86.2 136.16C86.41 136.04 86.76 135.74 86.98 135.5C87.22 135.24 87.42 134.91 87.49 134.67C87.54 134.45 87.57 134.09 87.55 133.89C87.53 133.68 87.44 133.39 87.35 133.25C87.27 133.1 87.13 132.99 87.05 132.99C86.96 132.99 86.89 133.11 86.86 133.34C86.83 133.54 86.73 133.82 86.64 133.98C86.54 134.14 86.27 134.36 86 134.49C85.68 134.65 85.3 134.73 84.82 134.76C84.43 134.79 83.96 134.78 83.78 134.75L83.44 134.69C83.7 133.7 84 132.35 84.28 131.05C84.77 128.69 84.78 128.68 85.01 128.71C85.14 128.72 85.93 128.69 86.77 128.64C87.6 128.58 88.52 128.47 88.81 128.38C89.09 128.3 89.53 128.13 89.78 128.01C90.03 127.88 90.4 127.62 90.62 127.43C90.83 127.23 91.09 126.91 91.19 126.72C91.29 126.52 91.38 126.22 91.39 126.04C91.4 125.84 91.36 125.68 91.26 125.6C91.13 125.51 91.07 125.53 90.88 125.75ZM59.38 146.87C58.11 148.26 56.92 149.56 56.74 149.77L56.4 150.15C58.39 152.04 59.59 153.16 60.34 153.86C61.1 154.56 61.75 155.1 61.79 155.06C61.83 155.02 61.86 152.6 61.86 149.67C61.86 146.4 61.83 144.34 61.77 144.34C61.72 144.34 60.64 145.48 59.38 146.87ZM101.14 149.67C101.14 152.6 101.17 155.02 101.21 155.06C101.25 155.1 101.62 154.82 102.03 154.45C102.45 154.07 103.63 152.96 104.67 151.99C105.7 151.01 106.54 150.17 106.52 150.12C106.51 150.07 105.34 148.75 103.91 147.19C102.49 145.62 101.29 144.34 101.23 144.34C101.17 144.34 101.14 146.18 101.14 149.67ZM84.16 145.01C83.77 145.11 83.02 145.41 82.5 145.67C81.97 145.93 81.14 146.43 80.65 146.78C80.15 147.13 79.26 147.89 78.67 148.46C78.07 149.03 77.31 149.87 76.98 150.31C76.65 150.75 76.14 151.56 75.86 152.11C75.58 152.65 75.2 153.55 75.01 154.09C74.83 154.64 74.61 155.49 74.53 155.99C74.45 156.48 74.39 157.27 74.39 157.74C74.39 158.21 74.45 158.89 74.53 159.25C74.61 159.62 74.83 160.26 75.03 160.67C75.26 161.15 75.6 161.65 75.97 162.04C76.28 162.38 76.75 162.8 77 162.96C77.26 163.13 77.8 163.35 78.23 163.46C78.75 163.6 79.28 163.65 79.93 163.65C80.67 163.65 81.02 163.6 81.5 163.44C81.84 163.32 82.39 163.03 82.73 162.79C83.15 162.49 83.57 162.08 84.03 161.47C84.41 160.98 84.84 160.33 85 160.03C85.16 159.73 85.3 159.39 85.3 159.28C85.3 159.16 85.24 159.01 85.16 158.94C85.08 158.88 84.94 158.85 84.84 158.88C84.75 158.9 84.49 159.21 84.25 159.56C84.02 159.91 83.48 160.54 83.07 160.95C82.5 161.51 82.18 161.76 81.83 161.88C81.57 161.98 81.08 162.08 80.74 162.11C80.4 162.14 79.91 162.12 79.65 162.06C79.35 161.99 79.03 161.82 78.76 161.59C78.53 161.4 78.25 161.05 78.13 160.81C78.01 160.58 77.85 160.18 77.77 159.91C77.69 159.65 77.6 159.14 77.56 158.78C77.52 158.38 77.54 157.77 77.61 157.26C77.67 156.8 77.83 156.05 77.96 155.61C78.09 155.17 78.34 154.4 78.53 153.9C78.71 153.41 79.09 152.54 79.37 151.96C79.65 151.39 80.12 150.54 80.43 150.07C80.74 149.6 81.28 148.91 81.65 148.52C82.01 148.14 82.61 147.6 82.97 147.32C83.34 147.05 83.95 146.65 84.35 146.44C84.74 146.23 85.36 145.99 85.72 145.9C86.16 145.8 86.52 145.78 86.77 145.82C86.97 145.86 87.27 146 87.41 146.14C87.56 146.27 87.75 146.59 87.83 146.85C87.93 147.17 87.96 147.5 87.92 147.85C87.89 148.13 87.84 148.51 87.81 148.67C87.77 148.92 87.8 149 87.95 149.08C88.06 149.13 88.19 149.15 88.26 149.13C88.33 149.1 88.46 148.92 88.56 148.72C88.66 148.52 88.76 148.08 88.78 147.7C88.81 147.19 88.78 146.93 88.63 146.52C88.52 146.24 88.29 145.83 88.11 145.62C87.94 145.41 87.61 145.16 87.38 145.06C87.07 144.93 86.67 144.88 85.91 144.85C85.09 144.82 84.72 144.86 84.16 145.01Z" />
		<path class="shp0" d="M44.83 169.9C45.66 170.73 46.37 171.42 46.4 171.42C46.42 171.42 45.77 170.73 44.95 169.9C44.13 169.07 43.43 168.39 43.39 168.39C43.34 168.39 43.99 169.07 44.83 169.9Z" />
	</g>
</svg>