<?xml version="1.0" encoding="utf-8"?>
<!-- Generator: Adobe Illustrator 16.0.0, SVG Export Plug-In . SVG Version: 6.00 Build 0)  -->
<!DOCTYPE svg PUBLIC "-//W3C//DTD SVG 1.1//EN" "http://www.w3.org/Graphics/SVG/1.1/DTD/svg11.dtd">
<svg version="1.1" id="Layer_1" xmlns="http://www.w3.org/2000/svg" xmlns:xlink="http://www.w3.org/1999/xlink" x="0px" y="0px"
	 width="316.227766017" height="316.227766017" viewBox="0 0 425.2 425.2" enable-background="new 0 0 425.2 425.2" xml:space="preserve">
<g>
	<path fill="#FFFFFF" d="M423.625,211.81c0,116.978-94.836,211.81-211.812,211.81C94.831,423.619,0,328.787,0,211.81
		C0,94.831,94.831,0,211.812,0C328.789,0,423.625,94.831,423.625,211.81z"/>
	<path fill="#EC2227" d="M413.018,211.81c0,111.116-90.082,201.206-201.205,201.206S10.605,322.926,10.605,211.81
		c0-111.12,90.084-201.207,201.207-201.207S413.018,100.689,413.018,211.81z"/>
	<path fill="#FFFFFF" d="M355.67,211.81c0,79.454-64.408,143.856-143.857,143.856c-79.452,0-143.859-64.402-143.859-143.856
		c0-79.452,64.407-143.859,143.859-143.859C291.262,67.95,355.67,132.358,355.67,211.81z"/>
	<circle fill="#010101" cx="211.812" cy="211.81" r="133.565"/>
	<g>
		<path fill="#FFFFFF" d="M205.76,154.164c-2.151,3.088-8.13,12.882-12.039,18.157c2.136,8.336,8.581,2.38,17.58,1.996
			c8.537-0.368,12.369,6.689,17.775-2.301c-3.537-5.885-9.814-15.408-11.924-18.176c-1.646,1.17-3.657,1.875-5.829,1.896
			C209.282,155.765,207.383,155.169,205.76,154.164"/>
		<path fill="#FFFFFF" d="M210.478,135.119l0.005-0.007c0,0-0.535-15.614-0.56-23.468c-6.706-5.381-9.014,3.761-15.984,9.46
			c-6.617,5.396-14.616,2.574-13.562,13c6.563,2.683,18.542,6.159,21.468,6.989C203.37,137.756,206.613,135.397,210.478,135.119"/>
		<path fill="#FFFFFF" d="M201.243,142.781c-2.305-0.727-14.812-4.589-22.022-5.989c-6.597,8.147,1.654,10.155,4.217,18.314
			c2.715,8.581-0.363,17.503,8.188,16.655c3.718-5.619,10.877-15.817,12.826-18.585c-2.146-1.87-3.55-4.583-3.589-7.661
			C200.856,144.564,201.011,143.658,201.243,142.781"/>
		<path fill="#FFFFFF" d="M211.992,135.119c3.866,0.278,7.108,2.637,8.633,5.975c2.924-0.831,14.9-4.306,21.469-6.989
			c1.053-10.426-6.947-7.605-13.562-13c-6.973-5.699-9.283-14.841-15.985-9.46c-0.023,7.854-0.562,23.468-0.562,23.468
			L211.992,135.119"/>
		<path fill="#FFFFFF" d="M221.221,142.781c0.233,0.877,0.391,1.783,0.386,2.734c-0.044,3.078-1.249,5.65-3.397,7.522
			c1.949,2.766,8.917,12.223,12.635,17.844c8.549,0.845,5.469-7.195,8.188-15.776c2.559-8.159,10.812-10.167,4.215-18.314
			C236.033,138.192,223.531,142.055,221.221,142.781"/>
		<path fill="#FFFFFF" d="M175.228,136.841c-0.099,0.082-1.547,4.427-0.688,8.789c0.484,2.482,4.846,4.19,6.493,8.697
			c2.482,6.8-1.02,19.431,8.22,19.065C171.345,185.954,156.378,142.135,175.228,136.841"/>
		<path fill="#FFFFFF" d="M246.285,135.976c19.324,2.833,6.174,37.837-1.838,39.588c-3.16,1.027-7.258-0.089-9.68-1.126
			c7.693-2.534,4.738-9.261,6.95-19.251c1.286-5.776,6.905-7.149,7.036-12.059C249.021,139.626,246.428,139.044,246.285,135.976"/>
		<path fill="#FFFFFF" d="M191.674,175.758c4.301,8.2,10.039,1.775,21.586,2.134c7.728,0.24,15.076,4.103,18.333-1.826
			C237.293,195.05,187.531,198.15,191.674,175.758"/>
		<path fill="#FFFFFF" d="M208.884,108.672c-8.392-3.931-9.065,4.652-18.481,11.356c-6.294,4.48-14.495,5.847-13.504,12.538
			C160.88,120.89,198.64,88.328,208.884,108.672"/>
		<path fill="#FFFFFF" d="M213.423,108.672c8.392-3.931,9.065,4.652,18.481,11.356c6.295,4.48,14.492,5.847,13.502,12.538
			C261.424,120.89,223.668,88.328,213.423,108.672"/>
		<path fill="#FFFFFF" d="M215.545,100.915c0,0-4.469,3.156-4.353,6.655c-0.179-3.684-4.529-6.549-4.529-6.549
			s4.531-3.175,4.364-6.648C211.362,99.091,215.545,100.915,215.545,100.915"/>
		<path fill="#FFFFFF" d="M255.14,136.312c0,0-4.562-2.804-7.774-2.516c3.909-1.141,5.735-5.825,5.735-5.825
			s2.933,3.068,7.786,2.512C257.843,131.183,255.14,136.312,255.14,136.312"/>
		<path fill="#FFFFFF" d="M234.711,184.913c0,0,1.381-4.682-0.393-8.223c2.246,2.943,7.854,2.482,7.854,2.482
			s-1.848,5.365,0.396,8.234C240.328,184.6,234.711,184.913,234.711,184.913"/>
		<path fill="#FFFFFF" d="M181.728,178.26c0,0,4.691,1.654,7.874-2.03c-2.071,3.376-0.31,8.123-0.31,8.123s-4.824-0.637-7.883,2.034
			C183.811,182.391,181.728,178.26,181.728,178.26"/>
		<path fill="#FFFFFF" d="M169.65,128.645c-0.039,3.333,4.672,5.907,4.672,5.907s-3.684-0.838-6.89,3.04
			c-0.92-4.062-4.696-5.919-4.696-5.919S168.279,131.634,169.65,128.645"/>
		<path fill="#FFFFFF" d="M220.096,145.324c0.058,4.871-3.855,8.876-8.748,8.93c-4.893,0.063-8.908-3.839-8.961-8.714
			c-0.058-4.866,3.853-8.864,8.738-8.93C216.021,136.555,220.035,140.457,220.096,145.324"/>
		<path fill="#010101" d="M211.25,150.48c-0.489,0.708-1.245,1.129-2.087,1.129c-2.005-0.029-3.977-1.95-4.047-3.96
			c-0.017-0.843,0.388-1.601,1.078-2.114c-0.705-0.484-1.126-1.235-1.126-2.076c0.02-2.01,1.94-3.984,3.948-4.057
			c0.843-0.01,1.608,0.38,2.114,1.071c0.492-0.703,1.238-1.117,2.085-1.124c2.01,0.029,3.981,1.952,4.049,3.958
			c0.024,0.848-0.377,1.605-1.072,2.107c0.707,0.497,1.121,1.247,1.126,2.095c-0.022,1.998-1.944,3.97-3.955,4.047h-0.017
			C212.505,151.565,211.752,151.173,211.25,150.48"/>
		<path fill="#FFFFFF" d="M209.049,141.161c-1.037,0.037-2.216,1.248-2.226,2.313c0,0.298,0.201,0.499,0.366,0.615l2.027,1.395
			l-1.979,1.465c-0.169,0.124-0.37,0.341-0.363,0.664c0.037,1.037,1.24,2.216,2.301,2.238c0.312-0.005,0.514-0.201,0.625-0.363
			l1.407-2.054l1.463,2.012c0.169,0.235,0.388,0.352,0.642,0.352c1.052-0.039,2.237-1.248,2.245-2.306
			c0-0.242-0.126-0.465-0.371-0.637l-2.026-1.412l1.998-1.451c0.239-0.172,0.358-0.387,0.351-0.637
			c-0.036-1.051-1.25-2.233-2.315-2.245c-0.229,0-0.449,0.126-0.622,0.371l-1.409,2.008l-1.448-1.974
			C209.594,141.353,209.381,141.161,209.049,141.161L209.049,141.161z"/>
		<path fill="#010101" d="M214.377,143.038c-0.191-0.082-0.414-0.138-0.676-0.136c-0.021-0.627-0.351-1.063-0.566-1.281
			c-0.528-0.506-1.274-0.705-2-0.708c-0.724,0.015-1.468,0.235-1.983,0.761c-0.218,0.213-0.523,0.659-0.535,1.288
			c-0.254,0.01-0.484,0.065-0.676,0.15c-0.875,0.393-1.327,1.361-1.311,2.419c0.01,1.059,0.492,2.022,1.376,2.391
			c0.189,0.082,0.407,0.128,0.668,0.13c0.029,0.637,0.349,1.061,0.574,1.289c0.528,0.501,1.279,0.707,1.998,0.698
			c0.724-0.01,1.462-0.228,1.984-0.751c0.215-0.23,0.53-0.664,0.54-1.296c0.256-0.007,0.479-0.07,0.67-0.147
			c0.875-0.393,1.33-1.369,1.316-2.427C215.743,144.358,215.271,143.394,214.377,143.038"/>
		<path fill="#FFFFFF" d="M213.765,146.269l-0.063,0.007c-0.125,0.015-0.413-0.097-0.755-0.349c0.041-0.163,0.067-0.32,0.067-0.492
			c-0.005-0.158-0.036-0.312-0.067-0.453c0.334-0.257,0.61-0.378,0.726-0.358l0.073,0.002c0.054,0,0.308,0.312,0.296,0.816
			C214.064,145.944,213.812,146.262,213.765,146.269"/>
		<path fill="#FFFFFF" d="M211.997,148.093c-0.092,0.104-0.424,0.237-0.775,0.237c-0.344,0.01-0.686-0.116-0.775-0.221l-0.053-0.133
			c-0.031-0.153,0.163-0.489,0.38-0.785c0.155,0.039,0.3,0.068,0.467,0.063c0.146-0.002,0.279-0.029,0.421-0.061
			c0.213,0.293,0.417,0.612,0.39,0.763L211.997,148.093z"/>
		<path fill="#FFFFFF" d="M208.698,146.342l-0.056-0.012c-0.061,0-0.303-0.315-0.295-0.821c-0.022-0.494,0.218-0.821,0.267-0.821
			l0.065-0.005l0.031-0.01c0.124,0.005,0.409,0.126,0.763,0.375c-0.037,0.138-0.059,0.278-0.059,0.429
			c0,0.162,0.032,0.315,0.075,0.46C209.131,146.228,208.829,146.349,208.698,146.342"/>
		<path fill="#FFFFFF" d="M210.372,142.871c0.109-0.116,0.438-0.242,0.785-0.242c0.351-0.002,0.68,0.111,0.78,0.223l0.056,0.128
			c0.026,0.141-0.146,0.446-0.349,0.727c-0.146-0.026-0.3-0.056-0.451-0.053c-0.179,0.002-0.336,0.039-0.484,0.078
			c-0.22-0.274-0.399-0.586-0.378-0.731L210.372,142.871z"/>
		<circle fill="#FFFFFF" cx="211.185" cy="145.482" r="0.581"/>
	</g>
	<g>
		<path fill="#FFFFFF" d="M181.883,304.08c1.751,3.24,1.468,6.695-1.579,7.963c-3.042,1.275-8.058-0.121-10.165-3.361
			c-8.561-12.945-3.807-28.391-11.068-41.33c-1.741-3.238-1.458-6.684,1.596-7.955c3.03-1.266,8.06,0.125,10.157,3.365
			C179.381,275.699,174.632,291.146,181.883,304.08"/>
		<path fill="#FFFFFF" d="M264.217,267.359c1.736-3.246,1.453-6.691-1.594-7.969c-3.031-1.266-8.045,0.131-10.164,3.367
			c-8.549,12.957-3.798,28.395-11.057,41.334c-1.73,3.229-1.47,6.684,1.587,7.951c3.032,1.275,8.067-0.129,10.165-3.361
			C261.715,295.744,256.963,280.301,264.217,267.359"/>
		<path fill="#FCEE23" d="M132.876,284.119c1.758,0.531,2.751,2.391,2.221,4.15l-2.797,9.291c-0.516,1.76-2.381,2.754-4.132,2.227
			c-1.761-0.527-2.758-2.379-2.233-4.141l2.79-9.295C129.258,284.596,131.106,283.59,132.876,284.119"/>
		<path fill="#FCEE23" d="M141.735,283.846c1.773,0.531,2.766,2.385,2.235,4.133l-2.797,9.301c-0.531,1.764-2.376,2.76-4.134,2.234
			c-1.761-0.531-2.761-2.385-2.24-4.152l2.8-9.289C138.125,284.316,139.979,283.318,141.735,283.846"/>
		<path fill="#FCEE23" d="M151.028,282.877c1.749,0.531,2.751,2.385,2.221,4.148l-2.783,9.285c-0.538,1.758-2.388,2.76-4.148,2.223
			c-1.758-0.52-2.759-2.379-2.224-4.137l2.785-9.293C147.417,283.344,149.265,282.344,151.028,282.877"/>
		<path fill="#FCEE23" d="M160.035,282.182c1.766,0.531,2.758,2.391,2.23,4.146l-2.792,9.295c-0.533,1.752-2.378,2.754-4.141,2.227
			c-1.763-0.531-2.759-2.387-2.235-4.141l2.794-9.295C156.419,282.646,158.272,281.652,160.035,282.182"/>
		<path fill="#FCEE23" d="M290.693,284.119c-1.756,0.531-2.752,2.391-2.23,4.15l2.795,9.291c0.525,1.76,2.387,2.754,4.141,2.227
			c1.758-0.527,2.764-2.387,2.229-4.141l-2.797-9.295C294.301,284.596,292.456,283.59,290.693,284.119"/>
		<path fill="#FCEE23" d="M281.814,283.846c-1.746,0.531-2.752,2.385-2.227,4.141l2.801,9.293c0.525,1.768,2.391,2.76,4.146,2.242
			c1.756-0.539,2.743-2.389,2.221-4.16l-2.785-9.281C285.438,284.316,283.584,283.318,281.814,283.846"/>
		<path fill="#FCEE23" d="M272.541,282.877c-1.758,0.525-2.762,2.385-2.23,4.141l2.787,9.293c0.541,1.758,2.383,2.76,4.154,2.223
			c1.756-0.52,2.748-2.379,2.223-4.137l-2.797-9.299C276.152,283.336,274.297,282.344,272.541,282.877"/>
		<path fill="#FCEE23" d="M263.531,282.182c-1.756,0.531-2.761,2.391-2.232,4.146l2.797,9.295c0.523,1.752,2.379,2.754,4.142,2.221
			c1.759-0.525,2.751-2.381,2.228-4.135l-2.797-9.295C267.141,282.65,265.295,281.652,263.531,282.182"/>
		<path fill="#FFFFFF" d="M269.684,165.913c-5.188,44.751-28.334,70.931-55.773,93.435c4.528,3.111,9.135,5.957,13.736,8.598
			c42.165-23.965,76.145-56.095,78.764-119.596C293.836,153.871,282.096,160.241,269.684,165.913z"/>
		<path fill="#FFFFFF" d="M178.131,279.461c0.797,2.992,0.632,6.055,1.429,7.975c9.762-3.797,21.39-6.617,30.225-11.34
			c-4.742-1.994-9.481-4.16-14.182-6.533c-4.931,3.783-10.928,6.83-17.61,8.869C178.042,278.775,178.085,279.115,178.131,279.461z"
			/>
		<path fill="#FFFFFF" d="M244.58,284.297c0.193-1.729,0.388-3.479,0.63-5.23c-46.253-22.088-83.124-52.977-91.28-113.151
			c-12.415-5.674-24.141-12.042-36.716-17.563c4.543,83.398,60.998,118.746,127.148,137.898
			C244.436,285.602,244.508,284.951,244.58,284.297z"/>
	</g>
	<g>
		<path fill="#FFFFFF" d="M44.643,202.251c4.106,0.388,6.007-2.659,6.35-6.289c0.225-2.377-0.124-6.072-3.278-6.371
			c-3.328-0.315-4.327,4.256-5.966,8.679c-1.643,4.466-3.853,8.923-9.643,8.375c-6.31-0.597-8.771-6.847-8.244-12.421
			c0.609-6.439,3.978-12.094,11.108-11.419l-0.621,6.568c-3.737-0.135-4.937,2.411-5.243,5.652
			c-0.205,2.161,0.466,4.753,3.059,4.998c2.377,0.225,2.818-1.216,5.538-8.764c0.774-2.194,2.854-8.974,9.855-8.311
			c5.661,0.535,9.476,5.387,8.682,13.771c-0.646,6.828-4.621,12.905-12.219,12.099L44.643,202.251z"/>
		<path fill="#FFFFFF" d="M27.474,172.379l1.88-6.551l11.432,3.282l3.461-12.057l-11.432-3.282l1.88-6.55l29.789,8.552l-1.881,6.55
			l-12.85-3.688l-3.461,12.058l12.851,3.688l-1.881,6.55L27.474,172.379z"/>
		<path fill="#FFFFFF" d="M38.657,137.618l10.377-20.723l5.122,2.565l-7.326,14.63l5.938,2.974l6.723-13.428l4.734,2.371
			l-6.724,13.427l6.792,3.4l7.481-14.94l5.122,2.565l-10.532,21.033L38.657,137.618z"/>
		<path fill="#FFFFFF" d="M54.612,108.183l12.937-17.524l4.607,3.401l-8.891,12.043l5.76,4.252l7.706-10.438l4.259,3.144
			L73.286,113.5l10.297,7.602l-4.045,5.481L54.612,108.183z"/>
		<path fill="#FFFFFF" d="M72.028,85.685l15.425-15.387l4.045,4.056L80.898,84.929l5.058,5.07l9.188-9.165l3.739,3.749l-9.188,9.165
			l9.043,9.064l-4.825,4.812L72.028,85.685z"/>
		<path fill="#FFFFFF" d="M92.598,66.376l5.344-4.227l19.224,24.304l-5.344,4.227L92.598,66.376z"/>
		<path fill="#FFFFFF" d="M105.185,56.54l19.833-11.993l2.965,4.903l-14.003,8.467l3.436,5.683l12.851-7.771l2.741,4.532
			l-12.851,7.771l3.93,6.5l14.3-8.646l2.964,4.903L121.22,83.059L105.185,56.54z"/>
		<path fill="#FFFFFF" d="M134.625,40.034l6.354-2.466l9.14,23.555l14.084-5.465L166.276,61l-20.438,7.931L134.625,40.034z"/>
		<path fill="#FFFFFF" d="M164.928,29.228l13.147-2.407c7.897-1.445,14.737,2.42,16.588,12.537
			c1.618,8.836-1.704,16.238-11.008,17.941l-13.147,2.407L164.928,29.228z M176.178,52.845l5.976-1.094
			c3.885-0.711,7.161-3.781,5.926-10.525c-1.125-6.147-3.978-9.684-10.637-8.464l-4.781,0.875L176.178,52.845z"/>
		<path fill="#FFFFFF" d="M243.999,45.607c-0.935,8.322-6.306,11.823-14.541,10.898c-8.28-0.93-12.659-5.483-11.72-13.849
			l2.15-19.146l6.771,0.761l-2.15,19.146c-0.379,3.363,0.111,6.781,5.588,7.396c4.829,0.542,6.619-1.396,7.133-5.967l2.15-19.146
			l6.77,0.761L243.999,45.607z"/>
		<path fill="#FFFFFF" d="M255.281,28.386l6.465,2.013l6.166,23.694l0.083,0.025l6.182-19.848l6.091,1.897l-9.214,29.585
			l-6.505-2.026l-6.139-23.639l-0.083-0.026l-6.169,19.807l-6.091-1.896L255.281,28.386z"/>
		<path fill="#FFFFFF" d="M288.874,40.247l6.161,2.908L281.81,71.173l-6.161-2.908L288.874,40.247z"/>
		<path fill="#FFFFFF" d="M305.098,55.136l-7.888-4.907l3.027-4.865l21.562,13.415l-3.027,4.866l-7.887-4.908l-13.346,21.451
			l-5.787-3.6L305.098,55.136z"/>
		<path fill="#FFFFFF" d="M326.541,62.452l17.511,15.176l-3.751,4.328l-12.361-10.714l-4.35,5.017l11.346,9.833l-3.468,4
			l-11.345-9.833l-4.975,5.738l12.626,10.941l-3.751,4.329l-17.772-15.403L326.541,62.452z"/>
		<path fill="#FFFFFF" d="M351.76,85.59l8.247,10.519c4.952,6.318,4.713,14.171-3.381,20.516c-7.069,5.542-15.168,6.045-21.005-1.4
			l-8.245-10.519L351.76,85.59z M336.088,106.534l3.747,4.782c2.437,3.108,6.679,4.58,12.075,0.349
			c4.917-3.855,6.721-8.026,2.543-13.354l-2.998-3.825L336.088,106.534z"/>
		<path fill="#FFFFFF" d="M382.08,131.398l8.264,20.156l-5.299,2.172l-5.68-13.852l-6.625,2.716l4.922,12.005l-4.898,2.008
			l-4.922-12.005l-11.846,4.856l-2.584-6.304L382.08,131.398z"/>
		<path fill="#FFFFFF" d="M367.508,160.991l1.977,6.521l-6.396,1.938l-1.975-6.52L367.508,160.991z"/>
		<path fill="#FFFFFF" d="M388.244,190.058c2.969-0.932,4.8-4.227,4.245-7.566c-1.001-6.037-6.515-7.455-11.866-6.568
			c-5.096,0.844-9.857,3.965-8.857,10.002c0.682,4.111,3.892,5.955,8.002,5.801l1.077,6.509c-7.735,0.578-13.489-3.88-14.731-11.373
			c-1.568-9.463,4.575-16.2,13.396-17.662c9.076-1.505,17.064,2.891,18.632,12.354c1.114,6.723-1.889,13.027-8.817,15.011
			L388.244,190.058z"/>
		<path fill="#FFFFFF" d="M375.32,203.075l0.217,6.812l-6.681,0.212l-0.218-6.812L375.32,203.075z"/>
	</g>
	<g>
		<path fill="#FFFFFF" d="M177.083,396.49l-6.026-1.293l4.132-19.268l-7.47-1.602l0.974-4.541c4.184,0.986,8.354,0.371,9.965-4.033
			l4.796,1.027L177.083,396.49z"/>
		<path fill="#FFFFFF" d="M197.809,368.031c7.522,0.668,9.656,6.086,9.395,9.025c-0.265,2.984-2.036,5.266-4.982,6.051l0.007-0.086
			l-0.003,0.043l-0.004,0.043c3.516,1.141,5.345,4.092,5.007,7.896c-0.565,6.355-6.552,9.004-12.172,8.504
			c-5.837-0.518-11.239-3.961-10.659-10.49c0.342-3.846,2.746-6.379,6.368-6.928l0.008-0.086c-2.867-1.084-4.165-3.639-3.9-6.621
			C187.356,369.934,192.88,367.592,197.809,368.031z M195.467,394.883c2.939,0.26,5.372-1.613,5.641-4.641
			c0.257-2.896-1.904-5.051-4.758-5.303c-2.983-0.266-5.511,1.209-5.788,4.322C190.286,392.373,192.527,394.621,195.467,394.883z
			 M196.672,380.828c2.508,0.223,4.663-0.98,4.893-3.576c0.139-1.555-0.362-4.258-4.167-4.596c-2.464-0.219-4.76,1.102-4.999,3.783
			C192.165,379.076,194.208,380.607,196.672,380.828z"/>
		<path fill="#FFFFFF" d="M221.546,368.344c7.54-0.461,10.456,4.58,10.637,7.525c0.182,2.99-1.229,5.512-4.024,6.727l-0.006-0.086
			l0.003,0.043l0.003,0.043c3.646,0.604,5.896,3.25,6.129,7.062c0.389,6.369-5.137,9.883-10.77,10.227
			c-5.85,0.357-11.706-2.242-12.106-8.785c-0.235-3.855,1.764-6.719,5.264-7.803l-0.005-0.086c-2.997-0.643-4.662-2.977-4.845-5.967
			C211.492,371.785,216.605,368.645,221.546,368.344z M222.33,381.17c2.512-0.154,4.464-1.666,4.306-4.264
			c-0.096-1.562-0.995-4.16-4.807-3.928c-2.47,0.152-4.544,1.801-4.378,4.488C217.61,380.109,219.86,381.32,222.33,381.17z
			 M223.234,395.248c2.945-0.18,5.07-2.396,4.887-5.43c-0.178-2.904-2.637-4.711-5.498-4.535c-2.988,0.182-5.268,2.018-5.078,5.137
			C217.736,393.539,220.287,395.43,223.234,395.248z"/>
		<path fill="#FFFFFF" d="M245.004,388.828c0.809,1.914,2.701,3.283,4.781,2.838c4.371-0.939,4.289-6.914,3.749-10.262l-0.104-0.066
			c-1.154,2.689-3.109,4.131-5.995,4.75c-2.546,0.545-5.39-0.088-7.487-1.592c-1.961-1.488-3.211-3.795-3.713-6.129
			c-1.301-6.068,1.873-11.764,8.068-13.094c8.996-1.93,13.1,5.402,14.711,12.916c1.557,7.256,0.105,16.223-8.34,18.035
			c-5.136,1.102-9.6-1.094-11.4-6.168L245.004,388.828z M251.517,374.691c-0.593-2.758-2.967-5.135-5.979-4.488
			c-2.886,0.619-3.949,3.732-3.376,6.406c0.601,2.801,2.645,5.293,5.742,4.627C251.129,380.545,252.145,377.619,251.517,374.691z"/>
	</g>
</g>
</svg>
