<?xml version="1.0" encoding="UTF-8" standalone="no"?>
<svg xmlns:rdf="http://www.w3.org/1999/02/22-rdf-syntax-ns#" xmlns="http://www.w3.org/2000/svg" height="188.4227" width="168.5075" version="1.1" xmlns:cc="http://creativecommons.org/ns#" xmlns:dc="http://purl.org/dc/elements/1.1/" viewBox="0 0 168.5075 188.4227"><g id="g10"><g id="g496"><g id="g498"><g id="g504"><path id="path506" d="M168.4971,6.07639V6.0649A565.48831,565.48831,0,0,0,84.24828,0,565.48058,565.48058,0,0,0,0,6.0649v.13841l.00219,70.167c.01641,59.423,34.4719,92.84232,82.87621,110.60921l1.3759.4415.00437.00164,1.37371-.44313c48.40541-17.76689,82.85706-51.18621,82.87512-110.60921V6.07639ZM84.2543,90.45761l-.01751-.01751.10887.10887Z" fill="#2dafe5"/></g><g id="g508"><path id="path510" d="M162.6785,11.89406v-.01094A526.47359,526.47359,0,0,0,84.24894,6.23728,526.46808,526.46808,0,0,0,5.81938,11.88312v.12911l.00219,66.49561c.01478,55.31882,32.091,86.43057,77.15159,102.97036l1.28125.41086.00383.00164,1.27907-.4125c45.06222-16.53979,77.13408-47.65153,77.151-102.97036V11.89406Z" fill="#7c2c3b"/></g><g id="g512"><path id="path514" d="M122.96336,151.36872c1.24132,1.24351,3.22885-.07276,5.26671-2.10953,2.03677-2.03732,3.35249-4.02485,2.11008-5.26836L52.56434,68.17191c-1.24241-1.24406-3.46354-1.03616-4.96035.46064s-1.7036,3.71739-.46173,4.9598Z" fill="#d6a93a"/></g><g id="g516"><path id="path518" d="M54.97657,67.01281,61.338,59.53043s.60069-.80037-.33372-1.9372a86.7211,86.7211,0,0,0-7.37351-7.34342c-.71011-.53285-1.19372-.4032-1.98151.35341C47.7546,54.337,37.8443,63.91471,37.248,64.53565a2.47208,2.47208,0,0,0-.85344,2.61558c.24071,1.33432.95137,3.55272-.27573,5.70547L29.422,83.39614c-.83867,1.28618-1.08321,2.42355-.45025,3.0412.33864.33153,1.18935.71558,2.91866-.48471.82773-.57334,9.93328-6.70334,12.835-9.09024,1.69977-1.39833,2.99689-2.67029,2.99689-2.67029l5.49539-5.38926s1.15652-1.13573,1.75885-1.79" fill="#f8d742"/></g><g id="g520"><path id="path522" d="M31.93412,85.27726c-1.90164,1.28837-1.89617,1.47711-1.63084,1.44155a4.59171,4.59171,0,0,0,1.58762-.76646c.82663-.57334,9.93274-6.70279,12.83444-9.09024,1.19865-.98529,2.19433-1.90711,2.67849-2.36611a11.48462,11.48462,0,0,0-4.56427,2.01379c-1.55425,1.29876-8.18428,6.92272-10.90544,8.76746" fill="#d6a93a"/></g><g id="g524"><path id="path526" d="M54.97614,67.01281l6.362-7.48238a1.35374,1.35374,0,0,0,.07167-1.26375s-.5241-.59194-2.3579,1.54768c-1.54221,1.79824-2.27092,2.50014-3.57023,4.05384a11.56054,11.56054,0,0,0-2.04443,4.718c.36435-.36052,1.09908-1.0947,1.53893-1.57339" fill="#d6a93a"/></g><g id="g528"><path id="path530" d="M45.71429,151.36872c-1.24077,1.24351-3.22885-.07276-5.26726-2.10953-2.03622-2.03732-3.35194-4.02485-2.10953-5.26836l77.80535-75.84845c1.24187-1.2435,3.463-1.03616,4.96035.46064,1.4968,1.49735,1.7036,3.71794.46119,4.9598Z" fill="#d6a93a"/></g><g id="g532"><path id="path534" d="M44.9579,150.62113l72.59444-74.55024c1.24241-1.24241,1.03562-3.463-.46119-4.95926a4.21306,4.21306,0,0,0-2.69819-1.2643L38.33717,143.9911c-1.185,1.18606-.04158,3.04941,1.83435,4.98716,1.86608,1.76159,3.64354,2.78845,4.78638,1.64287" fill="#f8d742"/></g><g id="g536"><path id="path538" d="M113.7304,66.98344l-6.36087-7.48238s-.60069-.80037.33262-1.9372a86.80658,86.80658,0,0,1,7.37351-7.34342c.7112-.53285,1.19536-.4032,1.98206.35341,3.89464,3.7338,13.8044,13.31149,14.40126,13.93242a2.47,2.47,0,0,1,.85289,2.61558c-.24017,1.33432-.95137,3.55272.27627,5.70547l6.69678,10.53945c.83812,1.28618,1.08321,2.42355.45079,3.0412-.33919.33153-1.1888.71558-2.9192-.48471-.82718-.57334-9.93274-6.70334-12.835-9.09024-1.69977-1.39833-2.99689-2.67029-2.99689-2.67029l-5.49485-5.38926s-1.15707-1.13573-1.7594-1.79" fill="#f8d742"/></g><g id="g540"><path id="path542" d="M136.77319,85.24785c1.90109,1.28837,1.89617,1.47711,1.63029,1.44155a4.58555,4.58555,0,0,1-1.58707-.76646c-.82663-.57334-9.93274-6.70334-12.83444-9.09024-1.19865-.98529-2.19487-1.90711-2.67849-2.36611a11.488,11.488,0,0,1,4.56427,2.01379c1.5537,1.29876,8.18373,6.92272,10.90544,8.76746" fill="#d6a93a"/></g><g id="g544"><path id="path546" d="M113.7304,66.98344l-6.36087-7.48238a1.35281,1.35281,0,0,1-.07221-1.26375s.5241-.59194,2.3579,1.54768c1.54166,1.79824,2.27147,2.50014,3.56968,4.05384a11.56243,11.56243,0,0,1,2.04552,4.718c-.3649-.36052-1.09963-1.0947-1.54-1.57339" fill="#d6a93a"/></g><g id="g548"><path id="path550" d="M125.98362,69.152a1.53572,1.53572,0,0,1-2.1708,0l-3.25839-3.26a1.5346,1.5346,0,0,1,2.1708-2.16971l3.25839,3.25894a1.53374,1.53374,0,0,1,0,2.1708" fill="#d6a93a"/></g><g id="g552"><path id="path554" d="M120.99214,65.89218a1.53306,1.53306,0,0,1,.86657-2.6019,1.53344,1.53344,0,0,0-1.30423,2.6019l3.25839,3.26a1.53164,1.53164,0,0,0,1.30423.43219,1.53288,1.53288,0,0,1-.86657-.43219Z" fill="#cda938"/></g><g id="g556"><path id="path558" d="M122.42558,67.08843a.16615.16615,0,0,1-.2347-.23524l1.49407-1.49407a.16576.16576,0,1,1,.2347.23415Z" fill="#d6a93a"/></g><g id="g560"><path id="path562" d="M122.91905,67.58468a.162.162,0,0,1-.23141,0,.16364.16364,0,1,1,.23141,0" fill="#d6a93a"/></g><g id="g564"><path id="path566" d="M121.89295,66.55946a.16344.16344,0,1,1,0-.23087.16361.16361,0,0,1,0,.23087" fill="#d6a93a"/></g><g id="g568"><path id="path570" d="M123.098,64.53626l-.51206-.51261a.16654.16654,0,0,0-.23524.23579l.08151.08206a.08155.08155,0,0,1,.00328.11l-1.32338,1.32283a.16654.16654,0,0,0,.23524.23579l1.32776-1.3283a.08269.08269,0,0,1,.10449.00711l.08261.08261a.16654.16654,0,0,0,.23579-.23524" fill="#d6a93a"/></g><g id="g572"><path id="path574" d="M125.83323,67.29363a.16607.16607,0,0,0-.23251-.03665l-.86657.6275a.08847.08847,0,0,1-.11872-.00821.09016.09016,0,0,1-.017-.10449l.17725-.3556a.16659.16659,0,0,0-.0186-.17671l-.00164-.00164-.00766-.00875-.00438-.00547-.00492-.00492-.00875-.00656-.00219-.00164a.16739.16739,0,0,0-.17671-.01805l-.35451.17616a.08985.08985,0,0,1-.10559-.01641.09169.09169,0,0,1-.00875-.11872l.62859-.86712a.16679.16679,0,0,0-.03665-.23251.16487.16487,0,0,0-.23141.0372l-1.24077,1.71126a.166.166,0,0,0,.01422.21117l.00711.00821.00328.00109a.1627.1627,0,0,0,.18546.02626l.60835-.30253a.09046.09046,0,0,1,.11653.12637l-.2987.60288a.16588.16588,0,0,0,.02571.186l.00274.00274.00656.00656a.16551.16551,0,0,0,.21281.01368l1.71071-1.23968a.16541.16541,0,0,0,.03665-.23141" fill="#d6a93a"/></g><g id="g576"><path id="path578" d="M54.75409,70.30628a3.86179,3.86179,0,0,0-2.76438,1.18059c-1.39122,1.39176-1.58379,3.45644-.42891,4.61132l31.08,31.84811,5.2886-5.2886Z" fill="#f8d742"/></g><g id="g580"><path id="path582" d="M130.34021,143.99082l-39.2074-38.21117a5.67029,5.67029,0,0,0-2.17737,8.64164l35.06821,35.95666c1.15379,1.15652,3.00127-.06784,4.89634-1.96073.32-.32059.62039-.639.89338-.95356,1.01045-1.36386,1.39723-2.60081.52683-3.47285" fill="#f8d742"/></g><g id="g584"><path id="path586" d="M122.35359,67.01644a.16615.16615,0,0,1-.2347-.23524l1.49407-1.49407a.166.166,0,1,1,.23524.23415Z" fill="#f8d742"/></g><g id="g588"><path id="path590" d="M122.847,67.51291a.1623.1623,0,0,1-.23087,0,.16363.16363,0,1,1,.23087,0" fill="#f8d742"/></g><g id="g592"><path id="path594" d="M121.821,66.48746a.16344.16344,0,1,1,0-.23141.16412.16412,0,0,1,0,.23141" fill="#f8d742"/></g><g id="g596"><path id="path598" d="M123.026,64.464l-.51152-.51261a.16826.16826,0,0,0-.23579.00109.16543.16543,0,0,0,0,.2347l.08151.08206a.08156.08156,0,0,1,.00328.11l-1.32338,1.32338a.16654.16654,0,0,0,.23579.23524l1.32721-1.3283a.08341.08341,0,0,1,.105.00711l.08261.08261a.16634.16634,0,0,0,.23524-.23524" fill="#f8d742"/></g><g id="g600"><path id="path602" d="M125.76122,67.22164a.1659.1659,0,0,0-.232-.03665l-.86657.6275a.09057.09057,0,0,1-.13568-.1127l.17671-.3556a.16656.16656,0,0,0-.01805-.17616l-.00219-.00219-.00766-.00875-.00438-.00547-.00492-.00438-.00875-.00711-.00219-.00164a.16739.16739,0,0,0-.17671-.01805l-.35451.17671a.08917.08917,0,0,1-.105-.017.09168.09168,0,0,1-.0093-.11817l.62859-.86766a.16726.16726,0,0,0-.03611-.23251.16528.16528,0,0,0-.23141.0372l-1.24132,1.71181a.166.166,0,0,0,.01422.21062l.00766.00821.00274.00164a.16274.16274,0,0,0,.18546.02571l.6089-.30253a.09082.09082,0,0,1,.11653.12692l-.29925.60288a.16525.16525,0,0,0,.02626.18546l.00219.00328.00711.006a.16557.16557,0,0,0,.21227.01477l1.71126-1.24022a.166.166,0,0,0,.03611-.232" fill="#f8d742"/></g><g id="g604"><path id="path606" d="M48.15256,63.75207a1.53572,1.53572,0,0,1,0,2.1708l-3.25949,3.25839a1.5348,1.5348,0,0,1-2.17026-2.1708l3.25894-3.25839a1.53374,1.53374,0,0,1,2.1708,0" fill="#d6a93a"/></g><g id="g608"><path id="path610" d="M42.99618,67.28385l3.25894-3.25839a1.534,1.534,0,0,1,2.02473-.12692,1.59756,1.59756,0,0,0-.12692-.14716,1.53638,1.53638,0,0,0-2.17135,0l-3.25894,3.25894a1.53473,1.53473,0,0,0,.00109,2.1708,1.58357,1.58357,0,0,0,.14552.12637,1.53262,1.53262,0,0,1,.12692-2.02364" fill="#cda938"/></g><g id="g612"><path id="path614" d="M46.01709,67.5459a.166.166,0,1,1-.23524.23415L44.28778,66.286a.166.166,0,0,1,.2347-.2347Z" fill="#d6a93a"/></g><g id="g616"><path id="path618" d="M46.514,67.05243a.16325.16325,0,1,1-.23141,0,.16394.16394,0,0,1,.23141,0" fill="#d6a93a"/></g><g id="g620"><path id="path622" d="M45.48828,68.07852a.16344.16344,0,0,1-.23087.23141.165.165,0,0,1-.00055-.23141.163.163,0,0,1,.23141,0" fill="#d6a93a"/></g><g id="g624"><path id="path626" d="M43.46514,66.87392l-.51206.511a.16654.16654,0,0,0,.23524.23579l.08206-.08206a.08353.08353,0,0,1,.11106-.00274l1.32229,1.32283a.16634.16634,0,0,0,.23524-.23524l-1.32776-1.32721a.082.082,0,0,1,.00656-.105l.08261-.08206a.16634.16634,0,0,0-.23524-.23524" fill="#d6a93a"/></g><g id="g628"><path id="path630" d="M46.223,64.13825a.16568.16568,0,0,0-.0372.232l.62859.866a.0929.0929,0,0,1-.00821.11981.09112.09112,0,0,1-.105.01641l-.3556-.17616a.16512.16512,0,0,0-.17616.01751l-.00328.00274-.00766.00711-.00492.00438-.00492.00492-.00766.00875-.00164.00274a.16517.16517,0,0,0-.01751.17561l.17616.35505a.09129.09129,0,0,1-.13568.11434l-.86712-.62859a.16568.16568,0,1,0-.19476.26807l1.71071,1.24077a.16688.16688,0,0,0,.21227-.01422l.006-.00766.00383-.00328a.16537.16537,0,0,0,.02517-.18491l-.30253-.6089a.09082.09082,0,0,1,.12637-.11653l.60288.29816a.16566.16566,0,0,0,.186-.02462l.00219-.00274.00711-.00766a.16474.16474,0,0,0,.01477-.21117l-1.24132-1.71181a.16556.16556,0,0,0-.23087-.03611" fill="#d6a93a"/></g><g id="g632"><path id="path634" d="M46.01709,67.38182a.166.166,0,1,1-.23524.23415l-1.49407-1.49352a.16615.16615,0,0,1,.2347-.23524Z" fill="#f8d742"/></g><g id="g636"><path id="path638" d="M46.514,66.8882a.16325.16325,0,1,1-.23141-.00055.16394.16394,0,0,1,.23141.00055" fill="#f8d742"/></g><g id="g640"><path id="path642" d="M45.48828,67.914a.16344.16344,0,1,1-.23141,0,.16378.16378,0,0,1,.23141,0" fill="#f8d742"/></g><g id="g644"><path id="path646" d="M43.46514,66.70941l-.51206.51152a.16634.16634,0,0,0,.23524.23524l.08206-.08151a.08354.08354,0,0,1,.11106-.00328l1.32229,1.32338a.16615.16615,0,0,0,.23524-.2347l-1.32776-1.3283a.08131.08131,0,0,1,.00656-.10449l.08261-.08206a.16724.16724,0,0,0,0-.23579.16511.16511,0,0,0-.23524,0" fill="#f8d742"/></g><g id="g648"><path id="path650" d="M46.223,63.9738a.16583.16583,0,0,0-.0372.232l.62859.86657a.093.093,0,0,1-.00821.11981.091.091,0,0,1-.105.01587l-.3556-.17616a.1652.1652,0,0,0-.17616.01805l-.00328.00219-.00766.00711-.00492.00438-.00492.00547-.00766.00821-.00164.00328a.16447.16447,0,0,0-.01751.17506l.17616.35505a.0917.0917,0,0,1-.017.10559.093.093,0,0,1-.11872.00985l-.86712-.62969a.16567.16567,0,1,0-.19476.26807l1.71071,1.24077a.16684.16684,0,0,0,.21227-.01368l.006-.00766.00383-.00328a.16552.16552,0,0,0,.02517-.18491l-.30253-.6089a.091.091,0,0,1,.12637-.11707l.60288.2987a.16577.16577,0,0,0,.186-.02517l.00219-.00219.00711-.00821a.16469.16469,0,0,0,.01477-.21117l-1.24132-1.71126a.16517.16517,0,0,0-.23087-.03665" fill="#f8d742"/></g><g id="g652"><path id="path654" d="M53.66993,45.09466a5.11,5.11,0,0,1-5.81872-4.78255q-.13376-4.2672-.26807-8.53331c1.33432-.10449,2.0023-.15428,3.33772-.24892q.12145,4.2672.24345,8.53441a1.98775,1.98775,0,0,0,2.40659,2.01051c.19695-.01313.29542-.01969.49237-.03228a2.17192,2.17192,0,0,0,2.29335-2.31742q-.1034-4.268-.2057-8.535c1.33651-.07933,2.005-.11653,3.3421-.186q.09027,4.2672.18108,8.5355a5.57351,5.57351,0,0,1-5.5129,5.52275c-.1964.01313-.29487.01915-.49128.03228" fill="#fff"/></g><g id="g656"><path id="path658" d="M62.04646,30.9025c1.55151-.07386,2.32781-.10723,3.88042-.168q2.61612,4.20976,5.19614,8.442l.03775-.00109q-.04185-4.30577-.08425-8.61264c1.33815-.0372,2.00777-.05361,3.34647-.081q.05744,6.75285.11434,13.50515c-1.528.03118-2.29171.05033-3.81915.09464q-2.58-4.21961-5.19724-8.41733l-.03775.00164q.06237,4.29675.12583,8.59349c-1.32229.05361-1.9837.08261-3.30544.14607q-.12884-6.75121-.25713-13.503" fill="#fff"/></g><g id="g660"><path id="path662" d="M76.88282,30.44344c1.3387-.02134,2.00832-.02954,3.34757-.041q.0238,6.75285.047,13.5057c-1.32338.01094-1.98534.01915-3.30872.04048q-.04267-6.75285-.08589-13.50515" fill="#fff"/></g><g id="g664"><path id="path666" d="M86.96512,33.22607c-1.72275-.0093-2.58385-.00985-4.30659-.00328-.00164-1.133-.00274-1.69977-.00438-2.83331q5.993-.0041,11.98154.10887c-.00985,1.133-.01477,1.69977-.02517,2.83331-1.7222-.0383-2.5833-.05307-4.306-.0755q-.02708,5.33647-.05471,10.67184c-1.32338-.017-1.98534-.023-3.30872-.03009q.01149-5.33565.02407-10.67184" fill="#fff"/></g><g id="g668"><path id="path670" d="M97.05948,30.54905q4.53226.13622,9.06179.33153c-.02134,1.133-.03173,1.69977-.05307,2.83277-2.27967-.10613-3.42033-.15209-5.70164-.22977-.01368.982-.02024,1.47328-.03392,2.45528,1.85787.06346,2.78681.09957,4.64359.18218-.02024,1.133-.03009,1.69977-.05033,2.83277-1.8524-.08206-2.77861-.11872-4.6321-.18163-.01422,1.01975-.02079,1.52963-.035,2.54938,2.37213.081,3.55764.12966,5.92868.24181-.02134,1.133-.03228,1.69977-.05361,2.83277q-4.61022-.20269-9.22154-.34247.07386-6.752.14716-13.50461" fill="#fff"/></g><g id="g672"><path id="path674" d="M108.6626,30.97933c2.14017.10887,3.2097.16959,5.34768.30363a7.03527,7.03527,0,0,1,6.82862,7.2165,6.47562,6.47562,0,0,1-7.17164,6.28428c-2.11336-.13294-3.17031-.19367-5.28586-.302q.14115-6.75121.2812-13.50242m4.94449,10.964c2.289.14333,3.72614-1.1133,3.79945-3.69988.07331-2.568-1.35456-3.99585-3.60141-4.13645-.74676-.0465-1.12041-.06893-1.86718-.1127l-.18546,7.83688c.74184.04322,1.11276.06565,1.85459.11215" fill="#fff"/></g><g id="g676"><path id="path678" d="M19.58745,15.181c1.73971-.21993,2.61011-.32606,4.35145-.53012q1.17184,5.75088,2.34313,11.5023l.047-.00547Q27.67,20.11454,29.012,14.08137c1.50009-.16084,2.25068-.238,3.75131-.38733q1.30806,5.7599,2.61448,11.51926l.0476-.00492q1.267-6.002,2.5368-12.00343c1.71673-.15263,2.57564-.2254,4.29346-.36271q-2.14919,8.66571-4.29346,17.3336c-2.01434.17889-3.021.27354-5.03366.47268q-1.02659-4.86789-2.05263-9.73634l-.0476.00492q-1.02659,5.08044-2.05154,10.16032c-2.03075.21883-3.04558.33317-5.07414.57224Q21.6461,23.41479,19.58745,15.181" fill="#fff"/></g><g id="g680"><path id="path682" d="M128.89543,13.08231c1.86882.16084,2.80322.24564,4.67095.424q1.85131,5.46366,3.69824,10.92951l.0476.00438q1.84639-5.08372,3.69606-10.16689c1.84639.20406,2.76931.31074,4.6146.53231q1.52553,8.67309,3.04886,17.34673c-1.71181-.21664-2.568-.32114-4.28088-.52246q-.7525-5.66389-1.505-11.32833l-.0476-.00547q-1.82095,5.375-3.63916,10.75116c-1.50009-.16029-2.25013-.23743-3.75131-.38678q-1.85541-5.755-3.71466-11.50887c-.0186-.00164-.02845-.00219-.047-.00438q-.65978,5.51782-1.31846,11.0351c-1.74518-.15537-2.61777-.22923-4.364-.36928q1.4451-8.36536,2.89185-16.73072" fill="#fff"/></g><g id="g684"><path id="path686" d="M43.91391,12.74493q5.7279-.43,11.46182-.75716c-.08261,1.42842-.12419,2.1429-.2068,3.57132q-3.55163.20433-7.10161.44094V19.0861c2.31742-.16084,3.47668-.23415,5.79519-.36764v3.56038c-2.31851.13349-3.47777.2068-5.79519.36764v3.20423q3.71575-.25767,7.43423-.459c0,1.424,0,2.13579.00055,3.55983q-5.79847.32989-11.58819.76427V12.74493" fill="#fff"/></g><g id="g688"><path id="path690" d="M74.91433,14.88021c-2.14673.03665-3.2201.06018-5.36628.11981V11.43965q7.44791-.18874,14.89528-.19093v3.56093c-2.14673-.00492-3.22064-.00109-5.36738.01751V28.23766c-1.66476.01422-2.49686.02462-4.16162.05307V14.88021" fill="#fff"/></g><g id="g692"><path id="path694" d="M91.3551,11.28454c1.66476.02024,2.49686.03392,4.16162.06784v6.78814q3.60743.0837,7.21322.20023V11.55261c1.66421.058,2.49631.09027,4.16.16248V28.686c-1.66366-.07167-2.49577-.10449-4.16-.16248V21.8776q-3.60661-.11735-7.21322-.20023v6.6459c-1.66476-.03392-2.49686-.0476-4.16162-.06784V11.28454" fill="#fff"/></g><g id="g696"><path id="path698" d="M119.34039,25.80677c-2.28241-.15537-3.42416-.22594-5.70821-.35505-.40867,1.40107-.61273,2.10187-1.02139,3.50348-1.71071-.093-2.56579-.13568-4.27705-.21391q2.57509-8.35551,5.15511-16.70829c2.243.12583,3.36453.19531,5.60645.3463q2.78517,8.68786,5.56159,17.37791c-1.70852-.13458-2.56251-.198-4.27158-.31785-.418-1.45358-.627-2.1801-1.04492-3.63259m-2.86559-9.72813q-.93468,3.05269-1.86882,6.10593c1.505.08808,2.25669.13458,3.76116.23415q-.92237-3.16922-1.84474-6.33734l-.0476-.00273" fill="#fff"/></g><g id="g700"><path id="path702" d="M63.24242,11.34451c-3.09865.11-6.61088,2.01817-6.63386,5.502-.03556,5.31814,7.95068,3.89081,8.44359,6.79689.13677.8042-.76919,1.4793-1.91587,1.47766a11.53757,11.53757,0,0,1-5.56542-1.31408c-.0848,1.46562-.15482,2.23645-.21172,3.56694a10.04693,10.04693,0,0,0,5.67374,1.51978c2.987.07714,6.5797-1.9941,6.60979-5.48719.04541-5.27711-7.8719-4.08284-8.44578-6.827-.14716-.703.7112-1.395,1.993-1.46836a9.6281,9.6281,0,0,1,4.43844.8146c.08534-1.68773.11106-1.929.20625-3.57187a8.43976,8.43976,0,0,0-4.59217-1.00936" fill="#fff"/></g></g></g><g id="g704"><path id="path706" d="M59.684,151.55215l2.02145.883-2.85082,6.52663,3.37328,1.47383-.75716,1.73259L56.076,159.81192Z" fill="#fff"/></g><g id="g708"><g id="g710"><g id="g716"><path id="path718" d="M69.66457,155.114a4.55868,4.55868,0,0,1,3.32732,5.68523A4.71432,4.71432,0,0,1,63.9,158.30182a4.55864,4.55864,0,0,1,5.76455-3.18782m-1.93337,7.0376a2.54185,2.54185,0,0,0,3.06035-1.9569,2.4372,2.4372,0,1,0-4.69174-1.28891,2.54283,2.54283,0,0,0,1.63138,3.24581" fill="#fff"/></g><g id="g720"><path id="path722" d="M75.10367,156.60183l2.22.22594,2.057,4.44172a16.11767,16.11767,0,0,1,.59631,1.60677l.02517.00274s-.00219-.976.05525-1.54057l.42672-4.189,2.19487.22375-.91307,8.96715-2.20746-.22485-2.07069-4.43023a16.11759,16.11759,0,0,1-.59631-1.60677l-.02517-.00274s.00164.976-.0558,1.54057l-.42508,4.17639L74.1906,165.569Z" fill="#fff"/></g><g id="g724"><path id="path726" d="M84.23433,157.39717l3.19767-.17233c2.83222-.15263,4.73386,1.39888,4.8865,4.23164.15209,2.83222-1.56956,4.61679-4.40233,4.76942l-3.19712.17178Zm3.49254,6.94515a2.62085,2.62085,0,0,0-.28175-5.224l-.906.04869.2812,5.224Z" fill="#fff"/></g><g id="g728"><path id="path730" d="M97.028,155.80671a4.55971,4.55971,0,0,1,5.59332,3.48105,4.71484,4.71484,0,1,1-9.2095,2.02583,4.55907,4.55907,0,0,1,3.61618-5.50688m1.56792,7.129a2.54275,2.54275,0,0,0,1.7966-3.15773,2.43747,2.43747,0,1,0-4.75246,1.04546,2.54327,2.54327,0,0,0,2.95586,2.11227" fill="#fff"/></g><g id="g732"><path id="path734" d="M102.52768,154.596l2.069-.83484,3.88917,2.97008a16.11521,16.11521,0,0,1,1.27688,1.14284l.023-.0093s-.45626-.86219-.66853-1.38848l-1.575-3.9034,2.045-.82554,3.37219,8.35715-2.057.82992-3.89629-2.95367a15.999,15.999,0,0,1-1.27688-1.14284l-.02352.0093s.45681.86219.66908,1.38848l1.57066,3.89191-2.04552.82554Z" fill="#fff"/></g></g></g></g></svg>